<?xml version="1.0" standalone="no"?>
<!DOCTYPE svg PUBLIC "-//W3C//DTD SVG 1.1//EN" "http://www.w3.org/Graphics/SVG/1.1/DTD/svg11.dtd" >
<svg xmlns="http://www.w3.org/2000/svg">
<metadata></metadata>
<defs>
<font id="museo_sans900" horiz-adv-x="1302" >
<font-face units-per-em="2048" ascent="1585" descent="-463" />
<missing-glyph horiz-adv-x="468" />
<glyph unicode="&#xfb01;" horiz-adv-x="1402" d="M68 778v277h129v24q0 94 33 169.5t85 119.5q58 44 121 66q113 39 244 39l106 -7v-299q-32 4 -57 4q-178 0 -178 -102v-14h721v-1055h-354v778h-367v-778h-354v778h-129zM922 1188v276h346v-276h-346z" />
<glyph unicode="&#xfb02;" horiz-adv-x="1447" d="M68 760v276h129v43q0 94 33 169.5t85 119.5q58 44 121 66q113 39 244 39l106 -7v-299q-32 4 -57 4q-178 0 -178 -102v-33h194v-276h-194v-760h-354v760h-129zM903 389v1075h354v-1028q0 -79 20 -107t79 -28l43 2v-307q-49 -6 -107 -6q-85 0 -145 14t-119 51 q-125 80 -125 334z" />
<glyph unicode="&#xfb03;" horiz-adv-x="2189" d="M68 778v277h129v24q0 94 33 169.5t85 119.5q58 44 121 66q113 39 244 39l106 -7v-299q-32 4 -57 4q-178 0 -178 -102v-14h432v24q0 94 33 169.5t86 119.5q58 44 121 66q113 39 243 39l107 -7v-299q-32 4 -57 4q-179 0 -179 -102v-14h721v-1055h-354v778h-367v-778h-354 v778h-432v-778h-354v778h-129zM1708 1188v276h346v-276h-346z" />
<glyph unicode="&#xfb04;" horiz-adv-x="2234" d="M68 778v277h129v24q0 94 33 169.5t85 119.5q58 44 121 66q113 39 244 39l106 -7v-299q-32 4 -57 4q-178 0 -178 -102v-14h432v24q0 94 33 169.5t86 119.5q58 44 121 66q113 39 243 39l107 -7v-299q-32 4 -57 4q-179 0 -179 -102v-14h195v-277h-195v-778h-354v778h-432 v-778h-354v778h-129zM1690 389v1075h354v-1028q0 -79 19.5 -107t78.5 -28l43 2v-307q-49 -6 -106 -6q-85 0 -145 14t-119 51q-125 80 -125 334z" />
<glyph horiz-adv-x="0" />
<glyph horiz-adv-x="682" />
<glyph unicode=" "  horiz-adv-x="468" />
<glyph unicode="&#x09;" horiz-adv-x="468" />
<glyph unicode="&#xa0;" horiz-adv-x="468" />
<glyph unicode="!" horiz-adv-x="749" d="M190 1464h369l-33 -1011h-303zM213 0v307h324v-307h-324z" />
<glyph unicode="&#x22;" horiz-adv-x="845" d="M102 1004v491h250v-491h-250zM494 1004v491h249v-491h-249z" />
<glyph unicode="#" horiz-adv-x="1431" d="M63 369l41 245h207l35 195h-203l41 246h203l72 409h274l-71 -409h221l71 409h275l-72 -409h215l-41 -246h-215l-35 -195h211l-41 -245h-211l-63 -369h-275l64 369h-221l-64 -369h-274l63 369h-207zM586 614h221l35 195h-221z" />
<glyph unicode="$" horiz-adv-x="1212" d="M80 184l188 273l51 -43q39 -27 125 -68q93 -41 174 -41q68 0 111 29.5t43 87.5q0 71 -235 162q-45 18 -82.5 35t-84 43t-82.5 52t-71.5 62t-59 74.5t-38 87.5t-13.5 102q0 166 108.5 285t283.5 152v192h223v-186q104 -11 200 -49.5t136 -77.5l39 -33l-152 -293 q-7 7 -47 35q-28 22 -115 57q-81 37 -161 37q-67 0 -111.5 -30t-44.5 -85q0 -43 59.5 -80.5t173.5 -82.5q437 -146 432 -451q0 -168 -110 -293q-108 -123 -299 -153v-187h-223v187q-75 11 -144.5 34.5t-120.5 53t-82 52t-55 44.5z" />
<glyph unicode="%" horiz-adv-x="1744" d="M59 1135q0 143 109 249q108 105 262 105t262 -105q109 -106 109 -249q0 -147 -109 -250t-262 -103q-155 0 -264 103q-107 101 -107 250zM141 0l1131 1464h311l-1130 -1464h-312zM317 1137q0 -45 33 -77t80 -32t80 32t33 77q0 42 -34 74t-79 32t-79 -32t-34 -74zM934 328 q0 145 108 250q107 104 263 104q155 0 262 -104q108 -105 108 -250q0 -148 -108 -250q-109 -103 -262 -103q-156 0 -265 103q-106 100 -106 250zM1192 330q0 -45 33 -77t80 -32t79.5 32t32.5 77q0 43 -34 74.5t-78 31.5q-45 0 -79 -32t-34 -74z" />
<glyph unicode="&#x26;" horiz-adv-x="1441" d="M80 424q0 113 64.5 210t168.5 140v4q-2 1 -9.5 5t-20.5 13.5t-31 24.5q-111 102 -111 273q0 197 140 297q140 98 344 98q89 0 182 -19l29 -6l-82 -280q-33 8 -80 8q-76 0 -123 -40t-47 -112q0 -61 40.5 -101t108.5 -40h178v180h353v-180h182v-307h-182v-141 q0 -205 -150 -340q-151 -136 -409 -136q-245 0 -396 127q-149 128 -149 322zM446 446q0 -60 52 -102.5t127 -42.5q97 0 151.5 47t54.5 123v121h-200q-185 0 -185 -146z" />
<glyph unicode="'" horiz-adv-x="460" d="M102 1004v491h256v-491h-256z" />
<glyph unicode="(" horiz-adv-x="688" d="M119 711q0 437 254 825h291q-232 -389 -232 -825q0 -465 232 -906h-291q-254 400 -254 906z" />
<glyph unicode=")" horiz-adv-x="688" d="M25 -195q231 439 231 906q0 438 -231 825h290q254 -388 254 -825q0 -506 -254 -906h-290z" />
<glyph unicode="*" horiz-adv-x="946" d="M37 1034l94 293l209 -92l-23 229h312l-25 -229l211 94l96 -293l-227 -47v-4l156 -170l-250 -182l-115 198h-4l-113 -198l-249 180l153 170v4z" />
<glyph unicode="+" horiz-adv-x="1286" d="M84 455v266h420v457h278v-457h420v-266h-420v-455h-278v455h-420z" />
<glyph unicode="," horiz-adv-x="589" d="M12 -227l154 567h338l-232 -567h-260z" />
<glyph unicode="-" horiz-adv-x="917" d="M137 434v307h643v-307h-643z" />
<glyph unicode="." horiz-adv-x="573" d="M119 0v336h336v-336h-336z" />
<glyph unicode="/" horiz-adv-x="888" d="M43 -86l524 1622h295l-524 -1622h-295z" />
<glyph unicode="0" horiz-adv-x="1310" d="M104 735q0 153 29 295q66 300 260 402q108 57 262 57q155 0 260 -57q197 -102 263 -402q28 -137 28 -295q0 -160 -28 -297q-65 -297 -263 -405q-107 -58 -260 -58q-152 0 -262 58q-195 107 -260 405q-29 142 -29 297zM473 735q0 -432 182 -432q183 0 183 432 q0 426 -183 426q-182 0 -182 -426z" />
<glyph unicode="1" horiz-adv-x="1136" d="M72 1094l395 370h309v-1157h314v-307h-975v307h311v611l2 112h-4q-19 -43 -57 -78l-88 -80z" />
<glyph unicode="2" horiz-adv-x="1230" d="M90 1174q23 46 72 108q48 58 98 96q59 46 152.5 78.5t193.5 32.5q200 0 350 -117q150 -114 150 -332q0 -122 -58 -226.5t-151 -176.5q-47 -35 -129.5 -89t-131 -87t-89 -75.5t-41.5 -78.5h622v-307h-1013q-17 104 -17 158q0 126 47 235q43 99 106.5 167t162.5 145 q37 28 93 66t89 62t68 54t51 59t16 60q0 69 -45.5 107t-112.5 38q-57 0 -111 -36.5t-81 -80.5l-25 -39z" />
<glyph unicode="3" horiz-adv-x="1202" d="M61 168l172 276q19 -19 41 -36q23 -18 105 -58q78 -37 156 -37q95 0 151.5 41.5t56.5 104.5q0 162 -272 162h-102l-76 174l192 231q83 99 111 121l16 16v4q-52 -10 -139 -10h-350v307h924v-223l-297 -342q164 -35 258 -151q96 -119 96 -273q0 -206 -143 -352 q-142 -148 -400 -148q-186 0 -319 68q-118 62 -160 104z" />
<glyph unicode="4" horiz-adv-x="1318" d="M53 354v217l565 893h439v-813h174v-297h-174v-354h-355v354h-649zM418 651h284v328l13 164h-4q-30 -88 -72 -152l-221 -336v-4z" />
<glyph unicode="5" horiz-adv-x="1196" d="M78 168l172 276q18 -19 41 -36q24 -19 104 -58q75 -37 152 -37q83 0 144 50t61 131q0 84 -65 133t-169 49q-46 0 -95 -11.5t-77 -25.5l-24 -12l-191 71l59 766h820v-307h-508l-8 -135l-9 -57h4q49 14 107 14q250 0 387 -137q137 -134 137 -344q0 -227 -151 -375 t-391 -148q-88 0 -173.5 19t-144.5 49q-115 61 -162 104z" />
<glyph unicode="6" horiz-adv-x="1267" d="M94 676q0 152 45.5 295t130.5 260q88 120 225 189t298 69q86 0 167 -14t121 -33l35 -17l-96 -307q-93 43 -201 43q-236 0 -315 -241h4q27 19 89 35t112 16q214 0 348 -152q131 -149 131 -350q0 -200 -137 -346q-136 -148 -363 -148q-241 0 -418 183q-176 182 -176 518z M463 594q0 -123 72 -207t153 -84q65 0 106.5 47.5t41.5 116.5q0 92 -58 153.5t-164 61.5q-151 0 -151 -88z" />
<glyph unicode="7" horiz-adv-x="1161" d="M70 1157v307h1050v-250l-614 -1214h-373l514 1026q48 91 82 121l12 12v4q-21 -6 -94 -6h-577z" />
<glyph unicode="8" horiz-adv-x="1275" d="M90 430q0 88 45 168q28 53 58 91.5t48 54.5t52 42q-133 115 -133 281q0 177 125 299q126 123 366 123q213 0 355 -115q141 -114 141 -309q0 -151 -143 -334q172 -120 172 -309q0 -184 -144 -316q-143 -131 -399 -131q-254 0 -400 134q-143 134 -143 321zM457 461 q0 -72 51 -121t125 -49q83 0 129.5 39t46.5 110q0 54 -70 97q-52 33 -69 41l-43 18q-19 11 -92 43q-78 -84 -78 -178zM510 1059q0 -63 52.5 -104.5t182.5 -96.5q52 94 52 180q0 62 -41.5 99t-112.5 37q-64 0 -98.5 -31t-34.5 -84z" />
<glyph unicode="9" horiz-adv-x="1267" d="M80 995q0 199 135 346q139 148 365 148q241 0 417 -182q177 -183 177 -519q0 -152 -46 -295t-133 -260q-87 -120 -223 -189t-297 -69q-85 0 -166.5 15.5t-120.5 34.5l-36 14l96 307q93 -43 201 -43q236 0 315 242h-4q-25 -20 -86 -35.5t-115 -15.5q-217 0 -348 149 t-131 352zM432 997q0 -93 57.5 -154t163.5 -61q152 0 152 88q0 123 -72 207t-153 84q-65 0 -106.5 -47.5t-41.5 -116.5z" />
<glyph unicode=":" horiz-adv-x="614" d="M139 0v336h336v-336h-336zM139 719v336h336v-336h-336z" />
<glyph unicode=";" horiz-adv-x="618" d="M27 -227l133 567h340l-211 -567h-262zM170 719v336h324v-336h-324z" />
<glyph unicode="&#x3c;" horiz-adv-x="1292" d="M123 479v219l1032 457v-297l-676 -268v-4l676 -267v-296z" />
<glyph unicode="=" horiz-adv-x="1323" d="M143 219v266h1037v-266h-1037zM143 690v266h1037v-266h-1037z" />
<glyph unicode="&#x3e;" horiz-adv-x="1292" d="M137 23v296l676 267v4l-676 268v297l1032 -457v-219z" />
<glyph unicode="?" horiz-adv-x="1026" d="M37 1325q27 27 72 59q163 111 356 111q187 0 332 -109t145 -292q0 -89 -34 -166t-91 -129q-20 -19 -60.5 -53t-63.5 -55.5t-49.5 -50.5t-39 -57t-12.5 -57v-73h-340v102q0 72 31.5 137t81.5 109q20 18 56 48t58 50t46.5 46.5t36 53t11.5 54.5q0 51 -42.5 86t-102.5 35 q-41 0 -90.5 -20.5t-77.5 -45.5l-27 -23zM260 0v307h324v-307h-324z" />
<glyph unicode="@" horiz-adv-x="1771" d="M90 489q0 328 229 547q230 224 576 224q321 0 465 -138q145 -136 145 -354v-406h152v-243h-580q-217 0 -342 110q-123 111 -123 263q0 144 121 253q122 107 344 107h101q0 61 -86 96q-84 35 -191 35q-193 0 -330 -152q-135 -150 -135 -342q0 -208 137 -348 q138 -141 379 -141v-266q-390 0 -628 215q-234 215 -234 540zM979 427.5q35 -72.5 119 -65.5h80v275h-76q-86 7 -122 -65t-1 -144.5z" />
<glyph unicode="A" horiz-adv-x="1355" d="M-8 0l497 1464h377l498 -1464h-369l-90 307h-456l-89 -307h-368zM532 594h289l-82 285l-59 251h-4q-39 -180 -60 -251z" />
<glyph unicode="B" horiz-adv-x="1349" d="M172 0v1464h539q229 0 363 -100.5t134 -282.5q0 -95 -45.5 -179.5t-124.5 -131.5v-4q112 -34 171 -124.5t59 -205.5q0 -221 -158 -330q-153 -106 -399 -106h-539zM530 307h215q72 0 114 43t42 111t-40 108.5t-113 40.5h-218v-303zM530 897h185q61 0 95 38t34 97 q0 57 -34.5 91t-100.5 34h-179v-260z" />
<glyph unicode="C" horiz-adv-x="1474" d="M72 735q0 321 219 537q217 217 549 217q98 0 191.5 -21t158.5 -53q132 -66 178 -112l21 -21l-166 -270q-35 29 -52 41q-36 25 -129 65q-93 43 -186 43q-199 0 -307 -123q-107 -122 -107 -295q0 -177 111 -309q110 -131 303 -131q104 0 195 45q104 49 145 90l49 45 l185 -262q-18 -25 -99 -86q-53 -39 -119 -74q-69 -35 -171 -60.5t-201 -25.5q-340 0 -555 215q-213 216 -213 545z" />
<glyph unicode="D" horiz-adv-x="1527" d="M172 0v1464h520q348 0 551 -194q205 -193 205 -535q0 -344 -205 -540q-204 -195 -551 -195h-520zM530 307h148q190 0 294.5 111t104.5 317q0 202 -105.5 312t-293.5 110h-148v-850z" />
<glyph unicode="E" horiz-adv-x="1204" d="M172 0v1464h918v-307h-560v-266h447v-307h-447v-277h588v-307h-946z" />
<glyph unicode="F" horiz-adv-x="1124" d="M172 0v1464h897v-307h-539v-307h447v-307h-447v-543h-358z" />
<glyph unicode="G" horiz-adv-x="1576" d="M74 735q0 323 217 537q217 217 551 217q101 0 198.5 -20t161.5 -50q120 -50 182 -104l21 -21l-172 -268q-14 14 -47 37q-31 22 -125 59q-88 39 -184 39q-219 0 -326 -119q-107 -116 -107 -294q0 -203 121 -324q124 -121 299 -121q69 0 144.5 25t117.5 55l35 27v112h-207 v305h525v-827h-299v41l2 61h-4q-8 -8 -48 -36q-28 -22 -129 -56q-103 -35 -208 -35q-295 0 -508 207q-211 205 -211 553z" />
<glyph unicode="H" horiz-adv-x="1593" d="M172 0v1464h358v-585h533v585h358v-1464h-358v573h-533v-573h-358z" />
<glyph unicode="I" horiz-adv-x="702" d="M172 0v1464h358v-1464h-358z" />
<glyph unicode="J" horiz-adv-x="1177" d="M43 451v106h358v-78q0 -79 29 -123q35 -53 107 -53q61 0 95 39.5t34 116.5v698h-394v307h752v-1013q0 -226 -145 -353q-144 -123 -347 -123q-201 0 -344 125q-145 127 -145 351z" />
<glyph unicode="K" horiz-adv-x="1417" d="M172 0v1464h358v-565h148l303 565h385l-395 -700v-4l418 -760h-402l-309 594h-148v-594h-358z" />
<glyph unicode="L" horiz-adv-x="1153" d="M172 0v1464h358v-1157h598v-307h-956z" />
<glyph unicode="M" horiz-adv-x="1849" d="M127 0l121 1464h389l213 -618l74 -242h4q47 171 73 242l213 618h390l118 -1464h-358l-45 659q-4 47 -4 110q0 45 2 99l2 37h-4q-65 -201 -82 -246l-154 -423h-307l-154 423l-81 246h-5q4 -68 4 -129.5t-4 -116.5l-45 -659h-360z" />
<glyph unicode="N" horiz-adv-x="1581" d="M172 0v1464h363l405 -684q42 -72 104 -209l19 -41h4q-16 166 -16 250v684h358v-1464h-360l-408 682q-42 72 -104 209l-19 41h-4q16 -166 16 -250v-682h-358z" />
<glyph unicode="O" horiz-adv-x="1675" d="M72 741q0 319 217 533q218 215 549 215q328 0 546 -215q220 -217 220 -533q0 -323 -220 -546q-220 -220 -546 -220q-329 0 -549 220q-217 220 -217 546zM442 741q0 -186 115 -313q113 -125 281 -125q167 0 280 125q115 127 115 313q0 178 -115 299t-280 121 q-166 0 -281 -121t-115 -299z" />
<glyph unicode="P" horiz-adv-x="1298" d="M172 0v1464h608q212 0 344 -141q133 -142 133 -362q0 -222 -133 -367q-132 -141 -344 -141h-250v-453h-358zM530 760h177q89 0 137.5 54t48.5 147q0 92 -47 144t-133 52h-183v-397z" />
<glyph unicode="Q" horiz-adv-x="1695" d="M72 741q0 319 217 533q218 215 549 215q328 0 546 -215q220 -217 220 -533q0 -226 -146 -434l154 -125l-203 -227l-149 141q-186 -121 -422 -121q-329 0 -549 220q-217 220 -217 546zM442 741q0 -186 115 -313q113 -125 281 -125q97 0 159 33l-149 131l201 227l145 -141 q39 85 39 188q0 178 -115 299t-280 121q-166 0 -281 -121t-115 -299z" />
<glyph unicode="R" horiz-adv-x="1402" d="M172 0v1464h510q198 0 285 -34q129 -50 199.5 -159.5t70.5 -266.5q0 -126 -58.5 -236.5t-160.5 -163.5v-4q20 -26 55 -88l285 -512h-400l-260 494h-168v-494h-358zM530 801h156q88 0 137 47t49 133q0 94 -48.5 135t-172.5 41h-121v-356z" />
<glyph unicode="S" horiz-adv-x="1187" d="M63 184l189 273l51 -43q39 -27 125 -68q93 -41 174 -41q68 0 111 29.5t43 87.5q0 25 -17 47t-53 41.5t-71.5 35t-93 39.5t-95.5 42q-70 32 -123 66t-103 83.5t-77 116t-27 147.5q0 197 148 324q149 125 370 125q140 0 256 -43q117 -40 166 -82l49 -41l-151 -293 q-7 7 -47 35q-28 22 -115 57q-81 37 -162 37q-66 0 -110.5 -30t-44.5 -85q0 -45 59 -82.5t172 -80.5q46 -16 83.5 -31.5t83.5 -39.5t82 -49.5t71 -60.5t58 -74q23 -40 37 -90q13 -47 13 -99v-7q0 -191 -139 -324q-137 -131 -377 -131q-93 0 -183 21t-155 53 q-133 68 -174 115z" />
<glyph unicode="T" horiz-adv-x="1263" d="M8 1157v307h1247v-307h-444v-1157h-358v1157h-445z" />
<glyph unicode="U" horiz-adv-x="1527" d="M152 539v925h358v-925q0 -112 68 -174t186 -62t186 62t68 174v925h358v-925q0 -253 -168 -408q-170 -156 -442 -156q-277 0 -447 156q-167 154 -167 408z" />
<glyph unicode="V" horiz-adv-x="1382" d="M-12 1464h389l258 -833q32 -109 49 -197l6 -39h4q24 127 56 236l262 833h383l-516 -1464h-373z" />
<glyph unicode="W" horiz-adv-x="2043" d="M43 1464h377l184 -915q19 -104 19 -135v-19h4q3 66 24 154l226 915h288l219 -915q21 -81 25 -135v-19h4q0 61 19 154l200 915h371l-371 -1464h-399l-184 739l-29 172h-4q-5 -64 -29 -172l-184 -739h-404z" />
<glyph unicode="X" horiz-adv-x="1382" d="M31 1464h407l160 -301l90 -188h4q49 114 90 188l162 301h408l-449 -737l447 -727h-400l-168 307l-90 182h-4q-57 -124 -90 -182l-168 -307h-397l444 727z" />
<glyph unicode="Y" horiz-adv-x="1308" d="M-8 1464h407l166 -352l88 -211h4q33 90 88 211l164 352h408l-483 -864v-600h-359v600z" />
<glyph unicode="Z" horiz-adv-x="1306" d="M78 0v225l565 801q56 79 98 121l15 12v4q-47 -6 -113 -6h-539v307h1106v-221l-567 -805q-61 -86 -98 -119l-15 -14v-4q46 6 113 6h578v-307h-1143z" />
<glyph unicode="[" horiz-adv-x="757" d="M174 -195v1731h504v-246h-209v-1239h209v-246h-504z" />
<glyph unicode="\" horiz-adv-x="888" d="M27 1536h295l524 -1622h-295z" />
<glyph unicode="]" horiz-adv-x="757" d="M80 51h209v1239h-209v246h504v-1731h-504v246z" />
<glyph unicode="^" horiz-adv-x="1290" d="M119 494l416 970h219l415 -970h-297l-229 614l-227 -614h-297z" />
<glyph unicode="_" horiz-adv-x="1273" d="M27 0h1220v-266h-1220v266z" />
<glyph unicode="`" horiz-adv-x="991" d="M238 1866h350l166 -307h-275z" />
<glyph unicode="a" horiz-adv-x="1146" d="M51 315q0 103 68 179t180 108q188 55 365 55h14v19q0 117 -156 117q-55 0 -124 -23.5t-119 -52.5l-41 -25l-123 250q46 33 57 39q44 23 154 59q113 39 231 39q223 0 349 -114.5t126 -315.5v-649h-323v63l4 66h-4q0 -1 -5 -8.5t-13.5 -18t-24.5 -26.5q-97 -101 -256 -101 q-149 0 -256 93q-103 95 -103 247zM408 334q0 -40 26 -64t74 -24q68 0 121 59t53 127v23h-33q-103 0 -172 -31t-69 -90z" />
<glyph unicode="b" horiz-adv-x="1304" d="M131 0v1464h354v-407l-4 -90h4q7 10 31 30q24 21 96 50q71 32 158 32q215 0 344 -153q131 -149 131 -400q0 -248 -139 -399q-140 -152 -352 -152q-80 0 -153.5 28.5t-106.5 62.5l-29 28h-4q2 -18 2 -59v-35h-332zM475 520q0 -107 56 -179.5t151 -72.5q90 0 148.5 68.5 t58.5 183.5q0 117 -57.5 188.5t-149.5 71.5q-91 0 -149 -67.5t-58 -192.5z" />
<glyph unicode="c" horiz-adv-x="1128" d="M53 528q0 221 158 387q159 164 430 164q148 0 255 -48t148 -95l17 -16l-150 -238q-22 22 -32 29q-30 22 -86 45q-67 28 -129 28q-115 0 -183.5 -72.5t-68.5 -179.5q0 -109 72 -185.5t192 -76.5q60 0 131 29.5t119 65.5l39 32l129 -247q-31 -31 -74 -62 q-154 -110 -379 -113q-272 0 -430 162q-158 166 -158 391z" />
<glyph unicode="d" horiz-adv-x="1304" d="M59 528q0 248 134 400q136 151 348 151q87 0 159 -20t95 -43l22 -21h4q-2 14 -2 47v422h355v-1464h-332v70l2 59h-4q-24 -32 -45 -53q-101 -101 -260 -101q-213 0 -347 152q-129 153 -129 401zM416 528q0 -117 57.5 -188.5t149.5 -71.5q91 0 148.5 67.5t57.5 192.5 q0 107 -55.5 179.5t-150.5 72.5q-90 0 -148.5 -68.5t-58.5 -183.5z" />
<glyph unicode="e" horiz-adv-x="1153" d="M55 528q0 238 150 394q151 157 399 157q229 0 357 -143q131 -140 131 -367l-9 -110h-665q18 -90 85.5 -139.5t160.5 -49.5q63 0 135.5 25t115.5 55l39 27l131 -248l-55 -43q-38 -26 -153 -68q-116 -43 -242 -43q-268 0 -424 164q-156 163 -156 389zM426 662h309 q0 63 -39.5 107t-99.5 44q-132 0 -170 -151z" />
<glyph unicode="f" horiz-adv-x="786" d="M68 760v276h129v43q0 94 33 169.5t85 119.5q58 44 121 66q113 39 244 39l106 -7v-299q-32 4 -57 4q-178 0 -178 -102v-33h194v-276h-194v-760h-354v760h-129z" />
<glyph unicode="g" horiz-adv-x="1288" d="M61 561q0 217 123 367q124 151 351 151q80 0 152.5 -23.5t105.5 -51.5l28 -27h6q-2 8 -2 24v54h332v-959q0 -112 -34.5 -202.5t-91.5 -149.5t-135 -99t-161 -57.5t-174 -17.5q-218 0 -399 94l100 268q131 -67 297 -67q244 0 244 203v34l2 39h-4q-91 -110 -264 -110 q-226 0 -351 155t-125 375zM418 573q0 -110 53 -178.5t150 -68.5q88 0 139 55t51 176q0 227 -205 227q-89 0 -138.5 -57.5t-49.5 -153.5z" />
<glyph unicode="h" d="M131 0v1464h354v-463l-4 -90h4q44 78 131 123t191 45q379 0 379 -395v-684h-355v618q0 140 -116 140q-159 0 -211 -156q-19 -55 -19 -135v-467h-354z" />
<glyph unicode="i" horiz-adv-x="616" d="M131 0v1055h354v-1055h-354zM135 1188v276h346v-276h-346z" />
<glyph unicode="j" horiz-adv-x="616" d="M-104 -125q12 -2 45 -2q190 0 190 135v1047h354v-1082q0 -96 -35 -174t-92 -121q-54 -42 -125 -65q-113 -39 -243 -39l-94 6v295zM135 1188v276h346v-276h-346z" />
<glyph unicode="k" horiz-adv-x="1226" d="M131 0v1464h354v-757h101l209 348h385l-310 -480v-4l353 -571h-404l-223 410h-111v-410h-354z" />
<glyph unicode="l" horiz-adv-x="661" d="M117 389v1075h354v-1028q0 -79 19.5 -107t78.5 -28l43 2v-307q-50 -6 -106 -6q-85 0 -145 14t-119 51q-125 80 -125 334z" />
<glyph unicode="m" horiz-adv-x="1880" d="M131 0v1055h340v-92l-4 -66h4q120 182 313 182q213 0 295 -178h4q46 76 138.5 127t199.5 51q161 0 251.5 -97.5t90.5 -297.5v-684h-354v625q0 133 -82 133q-154 0 -194 -199q-9 -37 -9 -123v-436h-354v625q0 133 -82 133q-151 0 -192 -191q-11 -60 -11 -131v-436h-354z " />
<glyph unicode="n" d="M131 0v1055h340v-92l-4 -66h4q108 182 336 182q379 0 379 -395v-684h-355v618q0 140 -116 140q-156 0 -209 -152q-21 -58 -21 -139v-467h-354z" />
<glyph unicode="o" d="M53 524q0 244 172 400q171 155 424 155q255 0 426 -155q174 -152 174 -400q0 -244 -172 -397q-175 -152 -426 -152t-426 152q-172 153 -172 397zM412 524q0 -113 68.5 -183.5t170.5 -70.5t171 70.5t69 183.5q0 115 -69 187.5t-171 72.5t-170.5 -72.5t-68.5 -187.5z" />
<glyph unicode="p" horiz-adv-x="1304" d="M131 -410v1465h320v-54l-5 -67h5q15 21 49 49q100 96 270 96q215 0 344 -153q131 -149 131 -400q0 -248 -139 -399q-140 -152 -352 -152q-70 0 -138.5 23t-101.5 51l-29 27h-4q4 -50 4 -90v-396h-354zM475 520q0 -107 56 -179.5t151 -72.5q90 0 148.5 68.5t58.5 183.5 q0 117 -57.5 188.5t-149.5 71.5q-91 0 -149 -67.5t-58 -192.5z" />
<glyph unicode="q" horiz-adv-x="1304" d="M59 528q0 248 134 400q136 151 348 151q78 0 144 -20.5t96 -40t50 -39.5l11 -12h4q-4 28 -4 57v31h332v-1465h-355v414l4 90h-4q-6 -8 -31 -33q-17 -17 -94 -53q-70 -33 -159 -33q-213 0 -347 152q-129 153 -129 401zM416 528q0 -117 57.5 -188.5t149.5 -71.5 q91 0 148.5 67.5t57.5 192.5q0 107 -55.5 179.5t-150.5 72.5q-90 0 -148.5 -68.5t-58.5 -183.5z" />
<glyph unicode="r" horiz-adv-x="880" d="M131 0v1055h340v-178l-4 -66h4q36 113 129.5 187.5t206.5 74.5l41 -4v-348q-27 6 -72 6q-214 0 -272 -184q-19 -62 -19 -144v-399h-354z" />
<glyph unicode="s" horiz-adv-x="964" d="M49 131l152 238l35 -31q35 -22 94 -47q76 -29 139 -29q104 0 104 49q0 22 -43.5 44.5t-130.5 54.5q-321 115 -319 348q0 144 123 233q125 88 311 88q130 0 222 -35t134 -73l15 -13l-121 -251l-33 24q-23 17 -86 37q-67 25 -131 25q-104 0 -104 -52q0 -24 106 -65 q19 -7 68 -25q59 -19 109.5 -45.5t101 -67t80 -99.5t28.5 -130q0 -143 -119 -237q-120 -97 -313 -97q-119 0 -223 39q-112 43 -152 78z" />
<glyph unicode="t" horiz-adv-x="849" d="M49 760v276h146v303h344v-303h221v-276h-221v-324q0 -135 188 -135l47 2v-307q-40 -6 -96 -6q-183 0 -311 67q-183 112 -183 332v371h-135z" />
<glyph unicode="u" horiz-adv-x="1292" d="M117 371v684h354v-619q0 -139 113 -139q106 0 164.5 81t58.5 210v467h354v-1055h-340v92l4 66h-4q-42 -84 -132 -133.5t-197 -49.5q-179 0 -277 96.5t-98 299.5z" />
<glyph unicode="v" horiz-adv-x="1150" d="M-4 1055h373l163 -561l39 -183h4q17 111 39 183l162 561h375l-358 -1055h-433z" />
<glyph unicode="w" horiz-adv-x="1720" d="M27 1055h372l131 -623l13 -110h4q3 51 18 110l146 623h303l145 -623l17 -110h4q3 58 14 110l131 623h369l-295 -1055h-395l-119 487l-21 113h-4q-7 -61 -20 -113l-119 -487h-399z" />
<glyph unicode="x" horiz-adv-x="1142" d="M23 1055h399l115 -236l32 -69h4l33 69l115 236h399l-338 -533l332 -522h-389l-127 238l-25 53h-4l-24 -53l-125 -238h-389l331 522z" />
<glyph unicode="y" horiz-adv-x="1118" d="M-35 1055h402l155 -486l39 -163h4q21 104 35 157l133 492h387l-432 -1168q-59 -158 -176.5 -237.5t-263.5 -79.5q-57 0 -119 17t-96 38l-31 19l113 260q56 -39 108 -39q127 0 170 106l21 49z" />
<glyph unicode="z" horiz-adv-x="1112" d="M70 0v176l387 486q44 52 80 88l12 8v4q-36 -4 -92 -4h-371v297h942v-178l-385 -486q-37 -47 -82 -86l-12 -10v-4q27 6 94 6h395v-297h-968z" />
<glyph unicode="{" horiz-adv-x="829" d="M80 524v307q7 0 19 1t42 12t52.5 30t41.5 61t19 99v180q0 100 41.5 172.5t110.5 104.5q118 55 256 55l88 -4v-254q-28 4 -52 4q-149 0 -149 -110v-240q0 -58 -17 -106t-43.5 -77.5t-50.5 -46.5t-45 -24l-16 -6v-4q7 -2 18.5 -6t41 -23.5t52.5 -45.5t41.5 -74.5 t18.5 -108.5v-260q0 -111 149 -111l52 4v-254q-50 -4 -88 -4q-138 0 -256 55q-69 32 -110.5 104.5t-41.5 172.5v201q0 54 -17.5 94.5t-44.5 60.5t-50 29.5t-44 11.5h-18z" />
<glyph unicode="|" horiz-adv-x="634" d="M170 -338v1980h295v-1980h-295z" />
<glyph unicode="}" horiz-adv-x="829" d="M80 53q28 -4 51 -4q150 0 150 111v260q0 60 17 108t44 76.5t49 44t43 23.5l19 6v4q-19 5 -62 31q-110 79 -110 229v240q0 110 -150 110l-51 -4v254q50 4 88 4q139 0 254 -55q71 -31 112 -103.5t41 -173.5v-180q0 -84 41.5 -136.5t90.5 -59.5l43 -7v-307q-7 0 -19 -1.5 t-42 -12t-53 -29t-42 -58.5t-19 -95v-201q0 -101 -41 -173.5t-112 -103.5q-115 -55 -254 -55l-88 4v254z" />
<glyph unicode="~" horiz-adv-x="1280" d="M96 391q0 416 357 416q59 0 116 -24.5t90 -57.5q86 -82 146 -82q52 0 82.5 41t30.5 115h272q0 -416 -354 -416q-59 0 -116.5 24t-92.5 58q-82 82 -146 82q-50 0 -80 -41t-30 -115h-275z" />
<glyph unicode="&#xa1;" horiz-adv-x="655" d="M143 -410l33 1010h303l33 -1010h-369zM166 745v308h323v-308h-323z" />
<glyph unicode="&#xa2;" horiz-adv-x="1204" d="M76 733q0 213 125 375q124 161 311 205v174h225v-174q140 -31 246 -124.5t150 -227.5l-316 -123q-24 69 -72 111t-112 42q-75 0 -139 -73q-62 -74 -62 -185q0 -120 57 -189t144 -69q64 0 113.5 43t70.5 111l316 -123q-43 -122 -148 -227q-101 -103 -248 -125v-179h-225 v179q-185 43 -311 202q-125 162 -125 377z" />
<glyph unicode="&#xa3;" horiz-adv-x="1245" d="M96 0v307h113v305h-88v230h88v205q0 194 141 317q140 125 359 125q105 0 206 -43q101 -40 148 -84l47 -43l-199 -242q-96 90 -192 90q-61 0 -102.5 -36t-41.5 -95v-194h338v-230h-338v-305h594v-307h-1073z" />
<glyph unicode="&#xa5;" horiz-adv-x="1318" d="M49 1464h412l108 -293l88 -272h5q47 160 88 272l108 293h412l-283 -571h191v-197h-287l-49 -100v-57h336v-197h-336v-342h-367v342h-334v197h334v57l-49 100h-285v197h189z" />
<glyph unicode="&#xa7;" horiz-adv-x="1075" d="M61 31l142 235l39 -30q19 -14 96 -52q74 -30 145 -30q201 0 201 192q0 66 -27 158l-139 491h268l152 -559q20 -73 20 -153q0 -187 -124 -298.5t-349 -111.5q-75 0 -145.5 15.5t-122 39.5t-84 45t-55.5 41zM109 1079q0 187 124 298.5t349 111.5q118 0 227 -41 q110 -41 152 -78l45 -39l-152 -221l-35 27q-21 15 -94 43q-68 26 -139 26q-201 0 -201 -170q0 -60 21 -137l147 -532h-268l-156 559q-20 73 -20 153z" />
<glyph unicode="&#xa8;" horiz-adv-x="993" d="M154 1579v287h258v-287h-258zM582 1579v287h258v-287h-258z" />
<glyph unicode="&#xa9;" horiz-adv-x="1638" d="M80 733q0 315 215 533q215 221 520 221q308 0 526 -221q218 -218 218 -533q0 -310 -218 -536q-219 -222 -526 -222q-301 0 -520 222q-215 226 -215 536zM311 733q0 -228 146 -389q146 -158 358 -158q216 0 365 158t149 389q0 230 -149 385q-149 158 -365 158 q-212 0 -358 -158t-146 -385zM467 727q0 160 104 270q104 113 248 113q61 -1 113 -17.5t85.5 -39t61 -54t41 -54t23.5 -46.5l8 -25l-205 -79q-4 13 -12 26q-7 23 -38.5 48.5t-68.5 25.5q-48 0 -84 -48t-36 -120q0 -79 32.5 -123.5t87.5 -44.5q38 0 68.5 23.5t42.5 52.5l8 24 l205 -79q-3 -23 -41 -82q-35 -63 -108.5 -107t-182.5 -47q-143 0 -248 111q-104 113 -104 272z" />
<glyph unicode="&#xaa;" horiz-adv-x="845" d="M104 993q0 224 371 224h10v16q0 74 -96 74q-60 0 -139 -41l-25 -15l-78 154l33 20q32 19 105 39.5t145 20.5q141 0 219 -73.5t78 -203.5v-409h-221v80h-4l-19 -27q-15 -20 -63 -44t-101 -24q-85 0 -149 58q-66 60 -66 151zM111 549v174h624v-174h-624zM344 1008 q0 -41 47 -41q36 0 64 28t28 64v10h-20q-119 0 -119 -61z" />
<glyph unicode="&#xab;" horiz-adv-x="1316" d="M57 578l336 421h324l-336 -421l336 -420h-324zM590 578l336 421h323l-336 -421l336 -420h-323z" />
<glyph unicode="&#xac;" horiz-adv-x="1232" d="M74 690v266h1036v-686h-276v420h-760z" />
<glyph unicode="&#xad;" horiz-adv-x="880" d="M119 434v307h643v-307h-643z" />
<glyph unicode="&#xae;" horiz-adv-x="1638" d="M80 733q0 315 215 533q215 221 520 221q308 0 526 -221q218 -218 218 -533q0 -310 -218 -536q-219 -222 -526 -222q-301 0 -520 222q-215 226 -215 536zM311 733q0 -228 146 -389q146 -158 358 -158q216 0 365 158t149 389q0 230 -149 385q-149 158 -365 158 q-212 0 -358 -158t-146 -385zM549 383v711h334q115 0 182.5 -63.5t67.5 -172.5q0 -69 -37.5 -119.5t-81.5 -62.5v-4q7 -5 26 -41l129 -248h-241l-101 242h-57v-242h-221zM770 772h55q82 0 82 86q0 84 -78 84h-59v-170z" />
<glyph unicode="&#xaf;" horiz-adv-x="993" d="M215 1602v229h563v-229h-563z" />
<glyph unicode="&#xb0;" horiz-adv-x="856" d="M57 1141q0 144 109 250q107 104 262 104t262 -104q109 -106 109 -250q0 -147 -109 -250t-262 -103q-155 0 -264 103q-107 101 -107 250zM315 1143q0 -45 33 -77t80 -32t80 32t33 77q0 42 -34 74t-79 32t-79 -32t-34 -74z" />
<glyph unicode="&#xb1;" horiz-adv-x="1282" d="M82 455v266h420v457h278v-457h420v-266h-420v-455h-278v455h-420zM102 -143h1078v-267h-1078v267z" />
<glyph unicode="&#xb2;" horiz-adv-x="831" d="M80 967q0 98 39.5 177t103.5 124q38 28 114.5 73.5t113 77.5t36.5 66q0 31 -26.5 50t-65.5 19q-33 0 -69.5 -21.5t-57.5 -47.5l-18 -23l-170 146q18 30 51 63q119 119 283 119q130 0 231 -76q103 -74 103 -217q0 -91 -53.5 -166t-129.5 -114q-187 -89 -196 -130h391v-221 h-670q-10 65 -10 101z" />
<glyph unicode="&#xb3;" horiz-adv-x="831" d="M63 985l125 184l23 -24q18 -18 68.5 -41t95.5 -23q50 0 80 24t30 62q0 36 -35 55t-92 19h-75l-50 117l127 141l50 47v4q-58 -4 -70 -4h-225v223h602v-161l-170 -187q198 -49 198 -258q0 -129 -94 -223t-260 -94q-92 0 -175.5 32.5t-119.5 71.5z" />
<glyph unicode="&#xb4;" horiz-adv-x="991" d="M238 1559l165 307h351l-242 -307h-274z" />
<glyph unicode="&#xb6;" horiz-adv-x="1339" d="M59 981q0 204 140 344q139 139 338 139h731v-307h-486v-1259h-245v596q-200 0 -338 141q-140 143 -140 346zM909 -102v1157h246v-1157h-246z" />
<glyph unicode="&#xb7;" horiz-adv-x="598" d="M137 436v336h324v-336h-324z" />
<glyph unicode="&#xb8;" horiz-adv-x="991" d="M303 -233q47 -21 92 -21q78 0 78 47q0 43 -84 43l-53 -4l72 227l147 -34v-15l-20 -84q153 -15 153 -164q0 -98 -66 -145t-173 -47q-75 0 -125 12l-21 6v179z" />
<glyph unicode="&#xb9;" horiz-adv-x="831" d="M92 1532l254 237h221v-682h185v-221h-625v221h182v293l6 66h-4q-9 -21 -22 -31l-49 -45z" />
<glyph unicode="&#xba;" horiz-adv-x="931" d="M92 1137q0 155 107 249q108 99 264 99q160 0 268 -99q109 -95 109 -249q0 -152 -109 -252q-111 -97 -266 -97t-266 97q-107 98 -107 252zM119 549v174h692v-174h-692zM336 1137q-6 -85 61.5 -120t135 0t61.5 120q0 61 -37 100t-92 39t-92 -39t-37 -100z" />
<glyph unicode="&#xbb;" horiz-adv-x="1316" d="M68 158l335 420l-335 421h323l336 -421l-336 -420h-323zM600 158l336 420l-336 421h324l336 -421l-336 -420h-324z" />
<glyph unicode="&#xbc;" horiz-adv-x="2062" d="M80 1227l254 237h221v-682h184v-221h-624v221h182v293l6 66h-4q-9 -20 -23 -31l-49 -45zM569 0l688 1464h244l-688 -1464h-244zM1245 178v172l350 553h308v-506h108v-219h-108v-178h-254v178h-404zM1489 397h160v185l8 102h-4q-15 -47 -43 -94l-121 -189v-4z" />
<glyph unicode="&#xbd;" horiz-adv-x="2084" d="M68 1227l254 237h221v-682h184v-221h-625v221h183v293l6 66h-4q-9 -20 -23 -31l-49 -45zM565 0l688 1464h244l-688 -1464h-244zM1298 100q0 98 40 177t104 124q35 25 114.5 72.5t114.5 79t35 65.5q0 32 -26.5 51t-65.5 19q-33 0 -70 -21.5t-57 -48.5l-19 -22l-170 145 q18 30 52 64q119 119 282 119q131 0 232 -76q102 -74 102 -217q0 -91 -53.5 -167t-128.5 -114q-188 -90 -197 -129h391v-221h-669q-11 72 -11 100z" />
<glyph unicode="&#xbe;" horiz-adv-x="2076" d="M53 680l125 184l23 -24q18 -18 68.5 -41t95.5 -23q50 0 80 24t30 62q0 36 -35 55t-92 19h-76l-49 117l127 141l49 47v4q-58 -4 -69 -4h-226v223h603v-161l-170 -187q198 -49 198 -258q0 -129 -94 -223t-260 -94q-92 0 -175.5 32.5t-119.5 71.5zM559 0l688 1464h244 l-688 -1464h-244zM1235 178v172l350 553h307v-506h109v-219h-109v-178h-254v178h-403zM1479 397h159v185l9 102h-5q-15 -47 -43 -94l-120 -189v-4z" />
<glyph unicode="&#xbf;" horiz-adv-x="958" d="M27 -29q0 88 34.5 165.5t88.5 127.5q20 18 75.5 65.5t79.5 71t48 63t24 75.5v63h340v-92q0 -72 -31.5 -137.5t-81.5 -110.5q-17 -15 -55.5 -46t-59 -49.5t-46 -46t-37 -54t-11.5 -54.5q0 -51 43 -86t103 -35q41 0 90.5 20.5t77.5 45.5l26 23l197 -240q-27 -27 -72 -59 q-163 -111 -356 -111q-190 0 -334 108q-143 107 -143 293zM385 748v307h324v-307h-324z" />
<glyph unicode="&#xc0;" horiz-adv-x="1355" d="M-8 0l497 1464h377l498 -1464h-369l-90 307h-456l-89 -307h-368zM310 1866h350l166 -307h-275zM532 594h289l-82 285l-59 251h-4q-39 -180 -60 -251z" />
<glyph unicode="&#xc1;" horiz-adv-x="1355" d="M-8 0l497 1464h377l498 -1464h-369l-90 307h-456l-89 -307h-368zM530 1559l166 307h351l-242 -307h-275zM532 594h289l-82 285l-59 251h-4q-39 -180 -60 -251z" />
<glyph unicode="&#xc2;" horiz-adv-x="1355" d="M-8 0l497 1464h377l498 -1464h-369l-90 307h-456l-89 -307h-368zM303 1559l203 307h344l202 -307h-276l-96 167h-4l-97 -167h-276zM532 594h289l-82 285l-59 251h-4q-39 -180 -60 -251z" />
<glyph unicode="&#xc3;" horiz-adv-x="1355" d="M-8 0l497 1464h377l498 -1464h-369l-90 307h-456l-89 -307h-368zM266 1559q0 313 262 313q51 0 102.5 -31t91.5 -61.5t64 -30.5q76 0 76 117h230q0 -314 -263 -314q-52 0 -103.5 31t-91 61.5t-63.5 30.5q-75 0 -75 -116h-230zM532 594h289l-82 285l-59 251h-4 q-39 -180 -60 -251z" />
<glyph unicode="&#xc4;" horiz-adv-x="1355" d="M-8 0l497 1464h377l498 -1464h-369l-90 307h-456l-89 -307h-368zM336 1579v287h258v-287h-258zM532 594h289l-82 285l-59 251h-4q-39 -180 -60 -251zM764 1579v287h258v-287h-258z" />
<glyph unicode="&#xc5;" horiz-adv-x="1355" d="M-8 0l497 1464h377l498 -1464h-369l-90 307h-456l-89 -307h-368zM455 1704q0 82 65 129q68 47 158 47t158 -47q67 -46 67 -129t-67 -129q-68 -44 -158 -44t-158 44q-65 47 -65 129zM532 594h289l-82 285l-59 251h-4q-39 -180 -60 -251zM616.5 1665.5 q17.5 -38.5 61.5 -33.5q44 -5 62.5 33.5t0 77.5t-62.5 35q-42 4 -60.5 -35t-1 -77.5z" />
<glyph unicode="&#xc6;" horiz-adv-x="1955" d="M-20 0l612 1464h1249v-307h-559v-266h447v-307h-447v-277h586v-307h-944v590h-344l-228 -590h-372zM690 877h234v280h-125z" />
<glyph unicode="&#xc7;" horiz-adv-x="1478" d="M76 735q0 321 219 537q217 217 549 217q98 0 191.5 -21t158.5 -53q132 -66 178 -112l21 -21l-166 -270q-40 33 -51 41q-36 25 -129 65q-93 43 -187 43q-199 0 -307 -123q-107 -122 -107 -295q0 -177 111 -309q110 -131 303 -131q104 0 195 45q104 49 145 90l49 45 l185 -262q-1 -1 -8.5 -9t-14 -14.5t-25 -22t-43.5 -34.5q-40 -31 -108 -71q-62 -34 -155 -60.5t-185 -32.5l-12 -51q153 -15 153 -164q0 -98 -66 -145t-173 -47q-75 0 -125 12l-21 6v179q47 -21 92 -21q78 0 78 47q0 43 -84 43l-53 -4l47 150q-296 37 -477 245 q-178 208 -178 508z" />
<glyph unicode="&#xc8;" horiz-adv-x="1204" d="M172 0v1464h918v-307h-560v-266h447v-307h-447v-277h588v-307h-946zM279 1866h350l166 -307h-275z" />
<glyph unicode="&#xc9;" horiz-adv-x="1204" d="M172 0v1464h918v-307h-560v-266h447v-307h-447v-277h588v-307h-946zM500 1559l166 307h350l-242 -307h-274z" />
<glyph unicode="&#xca;" horiz-adv-x="1204" d="M172 0v1464h918v-307h-560v-266h447v-307h-447v-277h588v-307h-946zM273 1559l203 307h344l202 -307h-276l-96 167h-4l-97 -167h-276z" />
<glyph unicode="&#xcb;" horiz-adv-x="1204" d="M172 0v1464h918v-307h-560v-266h447v-307h-447v-277h588v-307h-946zM305 1579v287h258v-287h-258zM733 1579v287h258v-287h-258z" />
<glyph unicode="&#xcc;" horiz-adv-x="702" d="M-16 1866h350l166 -307h-275zM172 0v1464h358v-1464h-358z" />
<glyph unicode="&#xcd;" horiz-adv-x="702" d="M172 0v1464h358v-1464h-358zM205 1559l166 307h350l-242 -307h-274z" />
<glyph unicode="&#xce;" horiz-adv-x="702" d="M-23 1559l203 307h344l203 -307h-276l-97 167h-4l-96 -167h-277zM172 0v1464h358v-1464h-358z" />
<glyph unicode="&#xcf;" horiz-adv-x="702" d="M10 1579v287h258v-287h-258zM172 0v1464h358v-1464h-358zM438 1579v287h258v-287h-258z" />
<glyph unicode="&#xd0;" horiz-adv-x="1570" d="M98 582v286h117v596h520q348 0 551 -194q205 -193 205 -535q0 -344 -205 -540q-204 -195 -551 -195h-520v582h-117zM573 307h148q190 0 294.5 111t104.5 317q0 202 -105.5 312t-293.5 110h-148v-289h213v-286h-213v-275z" />
<glyph unicode="&#xd1;" horiz-adv-x="1581" d="M172 0v1464h363l405 -684q42 -72 104 -209l19 -41h4q-16 166 -16 250v684h358v-1464h-360l-408 682q-42 72 -104 209l-19 41h-4q16 -166 16 -250v-682h-358zM379 1559q0 313 262 313q51 0 102.5 -31t91.5 -61.5t64 -30.5q76 0 76 117h229q0 -314 -262 -314 q-52 0 -103.5 31t-91 61.5t-63.5 30.5q-76 0 -76 -116h-229z" />
<glyph unicode="&#xd2;" horiz-adv-x="1675" d="M72 741q0 319 217 533q218 215 549 215q328 0 546 -215q220 -217 220 -533q0 -323 -220 -546q-220 -220 -546 -220q-329 0 -549 220q-217 220 -217 546zM442 741q0 -186 115 -313q113 -125 281 -125q167 0 280 125q115 127 115 313q0 178 -115 299t-280 121 q-166 0 -281 -121t-115 -299zM469 1866h350l166 -307h-275z" />
<glyph unicode="&#xd3;" horiz-adv-x="1675" d="M72 741q0 319 217 533q218 215 549 215q328 0 546 -215q220 -217 220 -533q0 -323 -220 -546q-220 -220 -546 -220q-329 0 -549 220q-217 220 -217 546zM442 741q0 -186 115 -313q113 -125 281 -125q167 0 280 125q115 127 115 313q0 178 -115 299t-280 121 q-166 0 -281 -121t-115 -299zM690 1559l166 307h350l-241 -307h-275z" />
<glyph unicode="&#xd4;" horiz-adv-x="1675" d="M72 741q0 319 217 533q218 215 549 215q328 0 546 -215q220 -217 220 -533q0 -323 -220 -546q-220 -220 -546 -220q-329 0 -549 220q-217 220 -217 546zM442 741q0 -186 115 -313q113 -125 281 -125q167 0 280 125q115 127 115 313q0 178 -115 299t-280 121 q-166 0 -281 -121t-115 -299zM463 1559l203 307h344l202 -307h-276l-96 167h-4l-97 -167h-276z" />
<glyph unicode="&#xd5;" horiz-adv-x="1675" d="M72 741q0 319 217 533q218 215 549 215q328 0 546 -215q220 -217 220 -533q0 -323 -220 -546q-220 -220 -546 -220q-329 0 -549 220q-217 220 -217 546zM426 1559q0 313 262 313q51 0 102.5 -31t91.5 -61.5t64 -30.5q76 0 76 117h229q0 -314 -262 -314q-52 0 -103.5 31 t-91 61.5t-63.5 30.5q-76 0 -76 -116h-229zM442 741q0 -186 115 -313q113 -125 281 -125q167 0 280 125q115 127 115 313q0 178 -115 299t-280 121q-166 0 -281 -121t-115 -299z" />
<glyph unicode="&#xd6;" horiz-adv-x="1675" d="M72 741q0 319 217 533q218 215 549 215q328 0 546 -215q220 -217 220 -533q0 -323 -220 -546q-220 -220 -546 -220q-329 0 -549 220q-217 220 -217 546zM442 741q0 -186 115 -313q113 -125 281 -125q167 0 280 125q115 127 115 313q0 178 -115 299t-280 121 q-166 0 -281 -121t-115 -299zM496 1579v287h258v-287h-258zM924 1579v287h258v-287h-258z" />
<glyph unicode="&#xd7;" horiz-adv-x="1275" d="M82 188l373 400l-373 401l188 189l367 -394l369 394l188 -189l-375 -401l375 -400l-188 -188l-369 393l-367 -393z" />
<glyph unicode="&#xd8;" horiz-adv-x="1679" d="M74 741q0 319 217 533q218 215 549 215q202 0 360 -82l84 115l143 -97l-81 -112q260 -220 260 -572q0 -323 -220 -546q-220 -220 -546 -220q-214 0 -389 99l-95 -131l-143 98l98 135q-237 220 -237 565zM444 741q0 -155 80 -270l475 655q-78 35 -159 35q-166 0 -281 -121 t-115 -299zM651 352q88 -49 189 -49q167 0 280 125q115 127 115 313q0 168 -98 281z" />
<glyph unicode="&#xd9;" horiz-adv-x="1527" d="M152 539v925h358v-925q0 -112 68 -174t186 -62t186 62t68 174v925h358v-925q0 -253 -168 -408q-170 -156 -442 -156q-277 0 -447 156q-167 154 -167 408zM396 1866h350l166 -307h-275z" />
<glyph unicode="&#xda;" horiz-adv-x="1527" d="M152 539v925h358v-925q0 -112 68 -174t186 -62t186 62t68 174v925h358v-925q0 -253 -168 -408q-170 -156 -442 -156q-277 0 -447 156q-167 154 -167 408zM616 1559l166 307h351l-242 -307h-275z" />
<glyph unicode="&#xdb;" horiz-adv-x="1527" d="M152 539v925h358v-925q0 -112 68 -174t186 -62t186 62t68 174v925h358v-925q0 -253 -168 -408q-170 -156 -442 -156q-277 0 -447 156q-167 154 -167 408zM389 1559l203 307h344l202 -307h-276l-96 167h-4l-97 -167h-276z" />
<glyph unicode="&#xdc;" horiz-adv-x="1527" d="M152 539v925h358v-925q0 -112 68 -174t186 -62t186 62t68 174v925h358v-925q0 -253 -168 -408q-170 -156 -442 -156q-277 0 -447 156q-167 154 -167 408zM422 1579v287h258v-287h-258zM850 1579v287h258v-287h-258z" />
<glyph unicode="&#xdd;" horiz-adv-x="1308" d="M-8 1464h407l166 -352l88 -211h4q33 90 88 211l164 352h408l-483 -864v-600h-359v600zM508 1559l165 307h351l-242 -307h-274z" />
<glyph unicode="&#xde;" horiz-adv-x="1300" d="M172 0v1464h358v-217h250q212 0 344 -141q133 -142 133 -363t-133 -366q-132 -141 -344 -141h-250v-236h-358zM530 543h177q89 0 137.5 54t48.5 146t-47.5 144.5t-132.5 52.5h-183v-397z" />
<glyph unicode="&#xdf;" horiz-adv-x="1306" d="M131 0v1079q0 192 154 301t368 109q195 0 332 -113q141 -111 141 -282q0 -48 -23 -98t-50.5 -85t-50.5 -75.5t-23 -69.5q0 -49 137 -152q56 -40 96.5 -114t40.5 -156q0 -172 -114 -266q-115 -92 -283 -92q-75 0 -139 9t-90 21l-25 13v290q89 -38 195 -38q102 0 102 86 q0 50 -139 145q-57 41 -97 107t-40 139q0 43 23 93t50.5 87t50.5 78t23 69q0 50 -34 79.5t-93 29.5q-158 0 -158 -139v-1055h-354z" />
<glyph unicode="&#xe0;" horiz-adv-x="1146" d="M51 315q0 103 68 179t180 108q188 55 365 55h14v19q0 117 -156 117q-55 0 -124 -23.5t-119 -52.5l-41 -25l-123 250q46 33 57 39q44 23 154 59q113 39 231 39q223 0 349 -114.5t126 -315.5v-649h-323v63l4 66h-4q0 -1 -5 -8.5t-13.5 -18t-24.5 -26.5q-97 -101 -256 -101 q-149 0 -256 93q-103 95 -103 247zM205 1465h350l166 -307h-275zM408 334q0 -40 26 -64t74 -24q68 0 121 59t53 127v23h-33q-103 0 -172 -31t-69 -90z" />
<glyph unicode="&#xe1;" horiz-adv-x="1146" d="M51 315q0 103 68 179t180 108q188 55 365 55h14v19q0 117 -156 117q-55 0 -124 -23.5t-119 -52.5l-41 -25l-123 250q46 33 57 39q44 23 154 59q113 39 231 39q223 0 349 -114.5t126 -315.5v-649h-323v63l4 66h-4q0 -1 -5 -8.5t-13.5 -18t-24.5 -26.5q-97 -101 -256 -101 q-149 0 -256 93q-103 95 -103 247zM408 334q0 -40 26 -64t74 -24q68 0 121 59t53 127v23h-33q-103 0 -172 -31t-69 -90zM424 1157l166 307h350l-242 -307h-274z" />
<glyph unicode="&#xe2;" horiz-adv-x="1146" d="M51 315q0 103 68 179t180 108q188 55 365 55h14v19q0 117 -156 117q-55 0 -124 -23.5t-119 -52.5l-41 -25l-123 250q46 33 57 39q44 23 154 59q113 39 231 39q223 0 349 -114.5t126 -315.5v-649h-323v63l4 66h-4q0 -1 -5 -8.5t-13.5 -18t-24.5 -26.5q-97 -101 -256 -101 q-149 0 -256 93q-103 95 -103 247zM197 1158l203 307h344l202 -307h-276l-96 167h-4l-97 -167h-276zM408 334q0 -40 26 -64t74 -24q68 0 121 59t53 127v23h-33q-103 0 -172 -31t-69 -90z" />
<glyph unicode="&#xe3;" horiz-adv-x="1146" d="M51 315q0 103 68 179t180 108q188 55 365 55h14v19q0 117 -156 117q-55 0 -124 -23.5t-119 -52.5l-41 -25l-123 250q46 33 57 39q44 23 154 59q113 39 231 39q223 0 349 -114.5t126 -315.5v-649h-323v63l4 66h-4q0 -1 -5 -8.5t-13.5 -18t-24.5 -26.5q-97 -101 -256 -101 q-149 0 -256 93q-103 95 -103 247zM160 1157q0 313 262 313q40 0 81.5 -19t69.5 -42t57.5 -42t49.5 -19q76 0 76 116h229q0 -313 -262 -313q-41 0 -82.5 19t-69 42.5t-57 42.5t-49.5 19q-76 0 -76 -117h-229zM408 334q0 -40 26 -64t74 -24q68 0 121 59t53 127v23h-33 q-103 0 -172 -31t-69 -90z" />
<glyph unicode="&#xe4;" horiz-adv-x="1146" d="M51 315q0 103 68 179t180 108q188 55 365 55h14v19q0 117 -156 117q-55 0 -124 -23.5t-119 -52.5l-41 -25l-123 250q46 33 57 39q44 23 154 59q113 39 231 39q223 0 349 -114.5t126 -315.5v-649h-323v63l4 66h-4q0 -1 -5 -8.5t-13.5 -18t-24.5 -26.5q-97 -101 -256 -101 q-149 0 -256 93q-103 95 -103 247zM230 1178v287h258v-287h-258zM408 334q0 -40 26 -64t74 -24q68 0 121 59t53 127v23h-33q-103 0 -172 -31t-69 -90zM658 1178v287h258v-287h-258z" />
<glyph unicode="&#xe5;" horiz-adv-x="1146" d="M51 315q0 103 68 179t180 108q188 55 365 55h14v19q0 117 -156 117q-55 0 -124 -23.5t-119 -52.5l-41 -25l-123 250q46 33 57 39q44 23 154 59q113 39 231 39q223 0 349 -114.5t126 -315.5v-649h-323v63l4 66h-4q0 -1 -5 -8.5t-13.5 -18t-24.5 -26.5q-97 -101 -256 -101 q-149 0 -256 93q-103 95 -103 247zM348 1303q0 81 66 129q67 47 157.5 47t157.5 -47q68 -47 68 -129t-68 -129q-67 -44 -157 -44t-158 44q-66 48 -66 129zM408 334q0 -40 26 -64t74 -24q68 0 121 59t53 127v23h-33q-103 0 -172 -31t-69 -90zM509.5 1264.5 q17.5 -38.5 61.5 -33.5q44 -5 62.5 33.5t0 77t-62.5 34.5q-42 4 -60.5 -34.5t-1 -77z" />
<glyph unicode="&#xe6;" horiz-adv-x="1751" d="M53 315q0 86 46.5 153t119.5 105q72 35 162 56q133 33 291 33h8v14q0 117 -156 117q-55 0 -125 -23.5t-120 -52.5l-41 -25l-123 248q52 37 55 39q34 19 152 61q110 39 229 39q218 0 334 -104h4q125 104 315 104q223 0 355 -147q133 -145 133 -373l-9 -100h-665 q18 -91 85 -140t161 -49q62 0 135 24.5t117 53.5l38 27l132 -246l-56 -43q-38 -26 -153 -68q-116 -43 -242 -43q-274 0 -424 185h-4q-37 -63 -133 -121q-103 -62 -262 -62q-149 0 -256 93q-103 95 -103 245zM410 334q0 -88 104 -88q68 0 121 59q51 60 51 129v25h-35 q-98 0 -168 -33q-73 -34 -73 -92zM1026 662h309q0 61 -37.5 106t-93.5 45q-137 0 -178 -151z" />
<glyph unicode="&#xe7;" horiz-adv-x="1132" d="M57 528q0 221 158 387q159 164 430 164q148 0 255.5 -48t148.5 -95l16 -16l-150 -238q-22 22 -32 29q-30 22 -86 45q-67 28 -129 28q-115 0 -183.5 -72.5t-68.5 -179.5q0 -109 72 -185.5t192 -76.5q60 0 131 29.5t119 65.5l39 32l129 -247q-17 -17 -68 -56 q-135 -101 -340 -117l-12 -51q153 -15 153 -164q0 -98 -66 -145t-173 -47q-75 0 -125 12l-21 6v179q46 -21 93 -21q77 0 77 47q0 43 -84 43l-53 -4l47 154q-217 34 -344 186q-125 152 -125 356z" />
<glyph unicode="&#xe8;" horiz-adv-x="1153" d="M55 528q0 238 150 394q151 157 399 157q229 0 357 -143q131 -140 131 -367l-9 -110h-665q18 -90 85.5 -139.5t160.5 -49.5q63 0 135.5 25t115.5 55l39 27l131 -248l-55 -43q-38 -26 -153 -68q-116 -43 -242 -43q-268 0 -424 164q-156 163 -156 389zM230 1465h350 l166 -307h-275zM426 662h309q0 63 -39.5 107t-99.5 44q-132 0 -170 -151z" />
<glyph unicode="&#xe9;" horiz-adv-x="1153" d="M55 528q0 238 150 394q151 157 399 157q229 0 357 -143q131 -140 131 -367l-9 -110h-665q18 -90 85.5 -139.5t160.5 -49.5q63 0 135.5 25t115.5 55l39 27l131 -248l-55 -43q-38 -26 -153 -68q-116 -43 -242 -43q-268 0 -424 164q-156 163 -156 389zM426 662h309 q0 63 -39.5 107t-99.5 44q-132 0 -170 -151zM449 1157l165 307h351l-242 -307h-274z" />
<glyph unicode="&#xea;" horiz-adv-x="1153" d="M55 528q0 238 150 394q151 157 399 157q229 0 357 -143q131 -140 131 -367l-9 -110h-665q18 -90 85.5 -139.5t160.5 -49.5q63 0 135.5 25t115.5 55l39 27l131 -248l-55 -43q-38 -26 -153 -68q-116 -43 -242 -43q-268 0 -424 164q-156 163 -156 389zM221 1158l203 307h344 l202 -307h-276l-96 167h-4l-97 -167h-276zM426 662h309q0 63 -39.5 107t-99.5 44q-132 0 -170 -151z" />
<glyph unicode="&#xeb;" horiz-adv-x="1153" d="M55 528q0 238 150 394q151 157 399 157q229 0 357 -143q131 -140 131 -367l-9 -110h-665q18 -90 85.5 -139.5t160.5 -49.5q63 0 135.5 25t115.5 55l39 27l131 -248l-55 -43q-38 -26 -153 -68q-116 -43 -242 -43q-268 0 -424 164q-156 163 -156 389zM254 1178v286h258 v-286h-258zM426 662h309q0 63 -39.5 107t-99.5 44q-132 0 -170 -151zM682 1178v286h258v-286h-258z" />
<glyph unicode="&#xec;" horiz-adv-x="616" d="M-61 1465h350l166 -307h-275zM131 0v1055h354v-1055h-354z" />
<glyph unicode="&#xed;" horiz-adv-x="616" d="M131 0v1055h354v-1055h-354zM160 1157l166 307h350l-242 -307h-274z" />
<glyph unicode="&#xee;" horiz-adv-x="616" d="M-68 1157l203 307h344l203 -307h-276l-97 168h-4l-96 -168h-277zM131 0v1055h354v-1055h-354z" />
<glyph unicode="&#xef;" horiz-adv-x="616" d="M-35 1178v286h258v-286h-258zM131 0v1055h354v-1055h-354zM393 1178v286h258v-286h-258z" />
<glyph unicode="&#xf0;" horiz-adv-x="1220" d="M61 494q0 186 129 321q132 135 345 135q74 0 124 -12l17 -6h4q-53 77 -143 129l-394 -162v195l189 80q-107 46 -195 61l99 276q276 -60 475 -182l329 137v-194l-166 -70q261 -249 261 -622q0 -88 -17.5 -171t-59 -163t-103.5 -139.5t-158 -95.5t-215 -36q-237 0 -379 154 t-142 365zM418 483q0 -96 43 -154.5t127 -58.5q94 0 142 68t48 174q0 76 -45.5 122t-124.5 46q-90 0 -140 -55t-50 -142z" />
<glyph unicode="&#xf1;" d="M131 0v1055h340v-92l-4 -66h4q108 182 336 182q379 0 379 -395v-684h-355v618q0 140 -116 140q-156 0 -209 -152q-21 -58 -21 -139v-467h-354zM254 1158q0 313 262 313q40 0 81.5 -19t69.5 -42.5t57.5 -42.5t49.5 -19q76 0 76 117h229q0 -314 -262 -314q-41 0 -82.5 19 t-69 42.5t-57 42.5t-49.5 19q-76 0 -76 -116h-229z" />
<glyph unicode="&#xf2;" d="M53 524q0 244 172 400q171 155 424 155q255 0 426 -155q174 -152 174 -400q0 -244 -172 -397q-175 -152 -426 -152t-426 152q-172 153 -172 397zM283 1465h350l166 -307h-275zM412 524q0 -113 68.5 -183.5t170.5 -70.5t171 70.5t69 183.5q0 115 -69 187.5t-171 72.5 t-170.5 -72.5t-68.5 -187.5z" />
<glyph unicode="&#xf3;" d="M53 524q0 244 172 400q171 155 424 155q255 0 426 -155q174 -152 174 -400q0 -244 -172 -397q-175 -152 -426 -152t-426 152q-172 153 -172 397zM412 524q0 -113 68.5 -183.5t170.5 -70.5t171 70.5t69 183.5q0 115 -69 187.5t-171 72.5t-170.5 -72.5t-68.5 -187.5z M504 1157l166 307h350l-242 -307h-274z" />
<glyph unicode="&#xf4;" d="M53 524q0 244 172 400q171 155 424 155q255 0 426 -155q174 -152 174 -400q0 -244 -172 -397q-175 -152 -426 -152t-426 152q-172 153 -172 397zM277 1158l203 307h344l202 -307h-276l-96 167h-4l-97 -167h-276zM412 524q0 -113 68.5 -183.5t170.5 -70.5t171 70.5 t69 183.5q0 115 -69 187.5t-171 72.5t-170.5 -72.5t-68.5 -187.5z" />
<glyph unicode="&#xf5;" d="M53 524q0 244 172 400q171 155 424 155q255 0 426 -155q174 -152 174 -400q0 -244 -172 -397q-175 -152 -426 -152t-426 152q-172 153 -172 397zM240 1157q0 313 262 313q40 0 81.5 -19t69.5 -42t57.5 -42t49.5 -19q76 0 76 116h229q0 -313 -262 -313q-41 0 -82.5 19 t-69 42.5t-57 42.5t-49.5 19q-76 0 -76 -117h-229zM412 524q0 -113 68.5 -183.5t170.5 -70.5t171 70.5t69 183.5q0 115 -69 187.5t-171 72.5t-170.5 -72.5t-68.5 -187.5z" />
<glyph unicode="&#xf6;" d="M53 524q0 244 172 400q171 155 424 155q255 0 426 -155q174 -152 174 -400q0 -244 -172 -397q-175 -152 -426 -152t-426 152q-172 153 -172 397zM310 1178v287h258v-287h-258zM412 524q0 -113 68.5 -183.5t170.5 -70.5t171 70.5t69 183.5q0 115 -69 187.5t-171 72.5 t-170.5 -72.5t-68.5 -187.5zM738 1178v287h258v-287h-258z" />
<glyph unicode="&#xf7;" horiz-adv-x="1458" d="M170 455v266h1118v-266h-1118zM580 0v276h299v-276h-299zM580 901v277h299v-277h-299z" />
<glyph unicode="&#xf8;" horiz-adv-x="1300" d="M51 524q0 244 172 400q171 155 424 155q141 0 268 -53l86 119l136 -92l-82 -113q192 -158 192 -416q0 -244 -172 -397q-175 -152 -426 -152q-133 0 -254 48l-90 -125l-135 94l80 112q-199 156 -199 420zM410 524q0 -86 39 -145l282 391q-43 14 -82 14 q-102 0 -170.5 -72.5t-68.5 -187.5zM580 279q30 -9 69 -9q102 0 171 70.5t69 183.5q0 79 -33 138z" />
<glyph unicode="&#xf9;" horiz-adv-x="1292" d="M117 371v684h354v-619q0 -139 113 -139q106 0 164.5 81t58.5 210v467h354v-1055h-340v92l4 66h-4q-42 -84 -132 -133.5t-197 -49.5q-179 0 -277 96.5t-98 299.5zM271 1465h350l166 -307h-275z" />
<glyph unicode="&#xfa;" horiz-adv-x="1292" d="M117 371v684h354v-619q0 -139 113 -139q106 0 164.5 81t58.5 210v467h354v-1055h-340v92l4 66h-4q-42 -84 -132 -133.5t-197 -49.5q-179 0 -277 96.5t-98 299.5zM492 1157l165 307h351l-242 -307h-274z" />
<glyph unicode="&#xfb;" horiz-adv-x="1292" d="M117 371v684h354v-619q0 -139 113 -139q106 0 164.5 81t58.5 210v467h354v-1055h-340v92l4 66h-4q-42 -84 -132 -133.5t-197 -49.5q-179 0 -277 96.5t-98 299.5zM264 1158l203 307h344l202 -307h-276l-96 167h-4l-97 -167h-276z" />
<glyph unicode="&#xfc;" horiz-adv-x="1292" d="M117 371v684h354v-619q0 -139 113 -139q106 0 164.5 81t58.5 210v467h354v-1055h-340v92l4 66h-4q-42 -84 -132 -133.5t-197 -49.5q-179 0 -277 96.5t-98 299.5zM297 1178v286h258v-286h-258zM725 1178v286h258v-286h-258z" />
<glyph unicode="&#xfd;" horiz-adv-x="1118" d="M-35 1055h402l155 -486l39 -163h4q21 104 35 157l133 492h387l-432 -1168q-59 -158 -176.5 -237.5t-263.5 -79.5q-57 0 -119 17t-96 38l-31 19l113 260q56 -39 108 -39q127 0 170 106l21 49zM416 1156l165 307h351l-242 -307h-274z" />
<glyph unicode="&#xfe;" horiz-adv-x="1300" d="M131 -410v1874h354v-403l-4 -90h4q99 108 275 108q215 0 348 -157q135 -156 135 -394q0 -239 -135 -395q-134 -158 -348 -158q-82 0 -152 23t-98 51l-25 25h-4q4 -50 4 -90v-394h-354zM475 526q0 -256 213 -256q89 0 144 73.5t55 184.5t-55 183.5t-144 72.5 q-213 0 -213 -258z" />
<glyph unicode="&#xff;" horiz-adv-x="1118" d="M-35 1055h402l155 -486l39 -163h4q21 104 35 157l133 492h387l-432 -1168q-59 -158 -176.5 -237.5t-263.5 -79.5q-57 0 -119 17t-96 38l-31 19l113 260q56 -39 108 -39q127 0 170 106l21 49zM221 1176v286h258v-286h-258zM649 1176v286h258v-286h-258z" />
<glyph unicode="&#x152;" horiz-adv-x="2031" d="M66 735q0 316 229 529q230 217 557 217q56 0 153.5 -8.5t116.5 -8.5h795v-307h-559v-266h446v-307h-446v-277h590v-307h-826q-19 0 -116.5 -8t-153.5 -8q-324 0 -557 219q-229 216 -229 532zM436 735q0 -182 121 -315q119 -131 295 -131q93 0 131 10l16 4v858 q-59 15 -147 15q-175 0 -295 -129q-121 -127 -121 -312z" />
<glyph unicode="&#x153;" horiz-adv-x="1986" d="M53 524q0 245 168 400t416 155q134 0 227.5 -40t179.5 -124h5q76 84 165 124t224 40q228 0 356 -143q131 -140 131 -367l-8 -110h-664q18 -86 86.5 -137.5t157.5 -51.5q63 0 136 25t116 55l39 27l131 -248l-55 -43q-37 -25 -154 -68q-116 -43 -242 -43q-143 0 -237.5 43 t-173.5 132h-4q-86 -89 -182 -132t-232 -43q-246 0 -418 152q-168 152 -168 397zM410 524q0 -113 68.5 -183.5t170.5 -70.5t171 70.5t69 183.5q0 115 -69 187.5t-171 72.5t-170.5 -72.5t-68.5 -187.5zM1260 662h309q-2 62 -39.5 106.5t-95.5 44.5q-136 0 -174 -151z" />
<glyph unicode="&#x178;" horiz-adv-x="1308" d="M-8 1464h407l166 -352l88 -211h4q33 90 88 211l164 352h408l-483 -864v-600h-359v600zM314 1579v287h258v-287h-258zM742 1579v287h258v-287h-258z" />
<glyph unicode="&#x2c6;" horiz-adv-x="995" d="M123 1559l203 307h344l202 -307h-276l-96 167h-4l-97 -167h-276z" />
<glyph unicode="&#x2dc;" horiz-adv-x="993" d="M84 1559q0 313 262 313q51 0 102.5 -31t91.5 -61.5t64 -30.5q76 0 76 117h229q0 -314 -262 -314q-52 0 -103.5 31t-91 61.5t-63.5 30.5q-76 0 -76 -116h-229z" />
<glyph unicode="&#x2000;" horiz-adv-x="940" />
<glyph unicode="&#x2001;" horiz-adv-x="1880" />
<glyph unicode="&#x2002;" horiz-adv-x="940" />
<glyph unicode="&#x2003;" horiz-adv-x="1880" />
<glyph unicode="&#x2004;" horiz-adv-x="626" />
<glyph unicode="&#x2005;" horiz-adv-x="470" />
<glyph unicode="&#x2006;" horiz-adv-x="313" />
<glyph unicode="&#x2007;" horiz-adv-x="313" />
<glyph unicode="&#x2008;" horiz-adv-x="235" />
<glyph unicode="&#x2009;" horiz-adv-x="376" />
<glyph unicode="&#x200a;" horiz-adv-x="104" />
<glyph unicode="&#x2010;" horiz-adv-x="917" d="M137 434v307h643v-307h-643z" />
<glyph unicode="&#x2011;" horiz-adv-x="917" d="M137 434v307h643v-307h-643z" />
<glyph unicode="&#x2012;" horiz-adv-x="917" d="M137 434v307h643v-307h-643z" />
<glyph unicode="&#x2013;" horiz-adv-x="1495" d="M137 455v266h1221v-266h-1221z" />
<glyph unicode="&#x2014;" horiz-adv-x="1904" d="M137 455v266h1630v-266h-1630z" />
<glyph unicode="&#x2018;" horiz-adv-x="530" d="M61 973l183 522h239l-110 -522h-312z" />
<glyph unicode="&#x2019;" horiz-adv-x="516" d="M72 973l110 522h312l-183 -522h-239z" />
<glyph unicode="&#x201a;" horiz-adv-x="544" d="M43 -182l111 522h301l-183 -522h-229z" />
<glyph unicode="&#x201c;" horiz-adv-x="937" d="M61 973l183 522h241l-110 -522h-314zM467 973l182 522h242l-111 -522h-313z" />
<glyph unicode="&#x201d;" horiz-adv-x="923" d="M72 973l110 522h314l-183 -522h-241zM477 973l111 522h313l-182 -522h-242z" />
<glyph unicode="&#x201e;" horiz-adv-x="937" d="M43 -182l111 522h301l-183 -522h-229zM436 -182l111 522h301l-182 -522h-230z" />
<glyph unicode="&#x2022;" horiz-adv-x="954" d="M96 596q0 157 111 268q113 113 270 113q158 0 268 -113q113 -110 113 -268q0 -157 -113 -270q-111 -111 -268 -111q-156 0 -270 111q-111 114 -111 270z" />
<glyph unicode="&#x2026;" horiz-adv-x="1888" d="M119 0v336h323v-336h-323zM782 0v336h324v-336h-324zM1446 0v336h323v-336h-323z" />
<glyph unicode="&#x202f;" horiz-adv-x="376" />
<glyph unicode="&#x2039;" horiz-adv-x="784" d="M57 578l336 421h324l-336 -421l336 -420h-324z" />
<glyph unicode="&#x203a;" horiz-adv-x="784" d="M68 158l335 420l-335 421h323l336 -421l-336 -420h-323z" />
<glyph unicode="&#x205f;" horiz-adv-x="470" />
<glyph unicode="&#x20ac;" horiz-adv-x="1222" d="M55 485v197h115q-5 47 -2 98h-113v197h148q71 228 264 369q192 143 446 143q108 0 207 -23l33 -6l-88 -323q-76 20 -162 20q-221 0 -315 -180h442l-41 -197h-448q-5 -43 4 -98h424l-41 -197h-318q49 -82 131 -127t179 -45q89 0 170 23l24 8l62 -328q-115 -41 -263 -41 q-258 0 -448 140q-187 138 -258 370h-152z" />
<glyph unicode="&#x2122;" horiz-adv-x="1980" d="M33 1241v223h835v-223h-286v-692h-258v692h-291zM907 549l72 915h242l149 -358l27 -90h4q18 70 26 90l150 358h242l67 -915h-260l-20 356l2 66h-4l-105 -256h-201l-104 256h-4l2 -66l-25 -356h-260z" />
<glyph unicode="&#x25fc;" horiz-adv-x="1054" d="M0 0v1055h1055v-1055h-1055z" />
</font>
</defs>
</svg>
