<svg width="1018" height="400" viewBox="0 0 1018 400" fill="none" xmlns="http://www.w3.org/2000/svg">
<path d="M125.389 160.519H57.5224L48.6182 185.305H0L69.0634 5.78064H115.025L184.088 185.305H134.05L125.389 160.519ZM112.631 124.172L91.6992 64.7432L70.5238 124.172H112.631Z" fill="#21FF94"/>
<path d="M271.568 191.086C215.263 191.086 171.695 148.248 171.695 95.3096C171.695 42.5942 215.263 0 271.568 0C297.794 0 322.58 10.1009 339.679 25.2726L309.842 58.7191C299.985 48.6182 286.01 42.8376 271.568 42.8376C241.245 42.8376 218.63 65.9399 218.63 95.3096C218.63 125.146 241.245 148.248 271.568 148.248C290.574 148.248 306.232 136.22 312.479 119.365H259.285L275.285 82.3082H362.537V94.8228C362.537 149.201 322.58 191.086 271.568 191.086Z" fill="#21FF94"/>
<path d="M451.316 191.086C402.698 191.086 375.275 160.763 375.275 106.364V5.78064H421.966V114.315C421.966 136.464 435.921 148.978 451.316 148.978C466.711 148.978 480.442 136.464 480.442 114.315V5.78064H527.134V106.384C527.113 160.763 499.914 191.086 451.316 191.086Z" fill="#21FF94"/>
<path d="M644.754 46.6913C636.094 42.5942 622.849 39.714 611.774 39.714C598.773 39.714 592.039 43.081 592.039 50.0583C592.039 58.2323 600.943 63.5262 616.115 78.2111C644.511 104.68 653.415 119.852 653.415 138.614C653.415 169.667 624.289 188.185 587.475 188.185C573.277 188.185 552.345 185.528 542.954 182.161V142.467C552.589 146.078 571.107 150.641 586.989 150.641C598.55 150.641 605.994 145.591 605.994 139.08C605.994 130.906 597.82 123.199 581.695 108.27C552.812 82.511 542.954 71.2134 542.954 49.7946C542.954 25.2523 563.399 2.14999 609.138 2.14999C620.922 2.14999 634.653 3.34669 644.998 6.95705L644.754 46.6913Z" fill="#21FF94"/>
<path d="M693.129 47.888H658.506V5.78064H769.9V47.888H739.821V185.305H693.129V47.888Z" fill="#21FF94"/>
<path d="M898.656 84.7219V185.325H851.965V5.78064H896.486L970.377 106.851V5.78064H1017.07V185.305H972.547L898.656 84.7219Z" fill="#21FF94"/>
<path d="M784.281 4.78678H830.972V185.305H784.281V4.78678Z" fill="#21FF94"/>
<path d="M49.3281 336.94H46.6711V394.219H0V214.695H53.6687C88.3322 214.695 126.099 226.256 126.099 277.268C126.099 300.127 113.098 316.252 96.0195 325.886L143.441 394.24H87.6021L49.3281 336.94ZM46.6913 256.092V300.614H55.3522C70.9903 300.614 80.1379 293.149 80.1379 277.998C80.1379 262.36 69.0634 256.092 55.1088 256.092H46.6913Z" fill="#21FF94"/>
<path d="M218.894 400C170.275 400 142.853 369.677 142.853 315.278V214.675H189.544V323.209C189.544 345.358 203.499 357.872 218.914 357.872C234.329 357.872 248.04 345.358 248.04 323.209V214.675H294.732V315.278C294.711 369.677 267.512 400 218.894 400Z" fill="#21FF94"/>
<path d="M310.552 213.701H357.244V394.219H310.552V213.701Z" fill="#21FF94"/>
<path d="M560.023 394.219H374.362V387.729L451.864 255.119H374.362V214.695H522.367L523.564 221.429L445.819 353.795H535.884L560.023 394.219Z" fill="#21FF94"/>
<path d="M708.59 316.653C707.746 315.81 706.836 315.071 705.867 314.435C710.417 303.917 712.97 292.815 712.97 282.215C712.97 243.986 667.1 213 638.986 213C610.872 213 565.001 243.986 565.001 282.215C565.001 292.999 567.643 304.309 572.341 314.99C571.66 315.492 571.016 316.047 570.41 316.653C561.45 325.604 563.869 342.531 575.818 354.461C578.984 357.624 582.499 360.108 586.116 361.897L577.667 371.912C576.358 373.709 576.55 376.185 578.126 377.752C579.695 379.319 582.173 379.511 583.971 378.21L601.054 365.267H603.081L596.408 384.885C595.742 386.999 596.718 389.29 598.716 390.273C600.714 391.256 603.118 390.643 604.398 388.832L620.963 365.267H622.354L623.116 390.717C623.227 392.934 624.936 394.738 627.148 394.967C629.36 395.196 631.402 393.792 631.979 391.648L638.416 365.267H639.548L645.992 391.655C646.562 393.799 648.611 395.211 650.823 394.974C653.035 394.745 654.744 392.942 654.855 390.724L655.617 365.267H657.008L673.566 388.832C674.846 390.643 677.258 391.256 679.248 390.273C681.238 389.29 682.215 387.006 681.556 384.885L674.89 365.267H676.917L694.008 378.21C695.805 379.518 698.284 379.326 699.852 377.752C701.421 376.185 701.613 373.709 700.311 371.912L692.158 362.252C696.042 360.441 699.815 357.831 703.189 354.461C715.13 342.531 717.549 325.604 708.59 316.653ZM602.985 349.198C597.939 354.239 588.95 353.426 582.898 347.38C576.846 341.333 576.032 332.352 581.078 327.311C586.124 322.27 595.113 323.083 601.165 329.13C607.217 335.176 608.031 344.164 602.985 349.198ZM696.101 347.38C690.049 353.426 681.06 354.239 676.015 349.198C670.969 344.157 671.783 335.176 677.835 329.13C683.887 323.083 692.876 322.27 697.921 327.311C702.96 332.352 702.146 341.341 696.101 347.38Z" fill="#21FF94"/>
</svg>
