<svg width="387" height="136" viewBox="0 0 387 136" fill="none" xmlns="http://www.w3.org/2000/svg">
<g clip-path="url(#clip0)">
<path d="M6.06787 17.7752H60.2956C96.0545 17.7752 108.727 33.7008 108.727 56.9659C108.727 67.8459 105.953 77.1143 99.3367 83.8825L118.325 113.463H96.0704L75.8381 79.3696C83.9301 75.4188 88.0872 68.1473 88.0872 57.6889C88.0872 41.0403 77.588 32.3997 57.6051 32.3997H26.5744V113.46H6.06787V17.7752ZM30.6725 36.5024H57.6005C75.4528 36.5024 83.9823 43.4883 83.9823 57.6912C83.9823 71.8397 75.412 78.7418 57.6005 78.7418H30.6725V36.5024ZM30.6725 82.8421H57.6005C63.1221 82.8421 67.9207 82.1871 71.9667 80.9019L91.2673 113.463H68.9747L60.0077 96.0477H51.3128V113.463H30.6725V82.8421ZM54.9236 65.4273C61.1025 65.4273 63.4259 62.3379 63.4259 58.3327C63.4259 54.3411 61.1025 51.1292 54.9236 51.1292H51.3151V65.4273H54.9236Z" fill="#00FF00"/>
<path d="M115.561 44.9752L136.066 31.3752V62.7481C136.066 84.1001 147.397 96.5124 166.958 96.5124C186.451 96.5124 197.851 84.0321 197.851 62.7481V6.44188H218.491V61.3813C218.491 97.3329 197.302 115.65 166.956 115.65C136.61 115.65 115.561 97.3329 115.561 61.3813V44.9752ZM140.166 24.5752L160.806 22.3085V64.1149C160.806 70.6769 162.719 73.1363 166.958 73.1363C171.197 73.1363 173.246 70.6769 173.246 64.1149V17.7752L193.75 6.44188V62.7481C193.75 81.7768 184.126 92.412 166.958 92.412C149.72 92.412 140.166 81.8584 140.166 62.7481V24.5752Z" fill="#00FF00"/>
<path d="M229.427 10.9752L249.932 17.7752V113.463H229.427V10.9752ZM254.032 22.3085L274.672 35.9085V113.463H254.032V22.3085Z" fill="#00FF00"/>
<path d="M312.496 60.5608H284.884L288.574 41.2737L342.693 41.1241L310.434 94.2571L373.778 94.1891L370.088 113.463H281.509L312.496 60.5608ZM293.087 17.7752H380.066L349.076 70.6769H378.289L363.238 90.0887L318.505 90.1567L349.858 36.9965L289.367 37.1733L293.087 17.7752Z" fill="#00FF00"/>
<g filter="url(#filter0_i)">
<path d="M162.724 25.1373C162.724 26.9801 159.875 29.9971 159.875 29.9971C159.875 29.9971 145.631 44.5763 129.375 67.3676C134.067 68.8749 136.58 70.5523 137.754 71.5564C138.258 72.0596 138.593 72.7283 138.593 73.0637C138.593 73.7347 137.754 73.7347 137.419 73.7347C135.912 73.5669 133.398 71.3887 127.699 69.7136C116.638 87.142 114.795 95.0187 114.628 99.2075C114.628 102.224 115.634 103.396 116.47 104.235C118.984 106.245 119.152 105.407 119.152 105.91C118.816 106.413 118.145 106.581 117.477 106.581C110.774 106.413 107.422 99.2075 107.422 92.3372C107.422 86.1379 110.942 77.0871 117.141 66.8644C114.124 65.5248 105.747 64.0152 98.2033 63.8475C78.0935 80.2695 51.2811 106.413 22.6236 106.413C12.7364 106.415 0 102.059 0 90.3267C0 74.4056 31.8399 65.3571 46.0859 62.8433C53.6271 61.5037 65.6925 59.8264 79.9385 59.8264C83.6264 59.8264 87.312 60.1619 91.1676 60.3296C137.251 25.6405 149.149 16.5897 153.338 14.076C156.522 14.076 162.053 20.7808 162.724 25.1373ZM40.3875 92.3372C54.7989 85.4669 70.5523 75.7475 86.9765 63.512C73.5692 63.512 58.8223 64.3507 45.2495 67.1999C36.7019 69.0427 6.03387 77.758 6.03387 89.6557C6.03387 95.6896 12.5687 97.5324 18.6025 97.5324C25.1373 97.5324 33.5172 95.5219 40.3875 92.3372ZM118.481 64.0175C124.012 54.4657 137.417 37.706 145.629 28.8252C133.228 36.1987 129.205 40.8907 100.885 61.336C107.59 61.8392 110.94 62.1724 118.481 64.0175Z" fill="#152350"/>
<path d="M160.845 87.8424L171.739 64.3801C167.55 67.2293 159.505 74.6028 153.136 80.3012C144.924 87.5069 139.06 96.7232 136.043 96.7232C133.194 96.7232 131.183 93.0353 130.177 90.0207C129.674 88.6811 129.674 87.1715 129.674 86.3328C129.674 75.4392 139.393 61.8664 146.599 54.8284C153.972 47.6227 168.386 38.0709 180.116 37.4C182.294 37.4 182.965 38.5741 183.133 38.9073C186.821 41.9243 189.332 47.4549 189.332 47.4549C190.171 48.4613 190.507 49.4655 190.507 50.8073C190.507 52.3147 189.165 58.1808 186.819 58.1808C186.483 57.8453 186.483 57.6776 186.483 57.5099C186.651 56.6712 188.326 54.8284 188.326 52.4824C187.991 49.13 184.137 48.2936 181.791 48.2936C171.736 48.2936 157.828 59.0195 157.828 59.1872C147.773 68.2357 143.249 74.4373 141.071 79.1293C138.892 83.4859 138.557 86.1673 138.557 86.6705C141.574 83.8213 151.125 76.1124 159.505 69.5776C166.376 64.3824 173.248 60.0259 174.755 60.0259C174.588 60.0259 175.93 59.8581 178.944 61.8687C180.787 63.2083 182.464 64.0469 182.464 65.722C182.464 66.2252 181.793 67.5648 181.458 68.5712C179.28 74.1019 174.085 82.6472 172.074 86.8383C173.08 86.8383 174.252 87.006 174.588 87.8447C174.588 89.1843 173.08 89.352 173.08 89.352L170.567 90.1907C166.546 96.7255 164.032 100.581 160.512 105.441C152.3 117.171 137.217 136.109 123.141 136.109C118.114 136.109 115.6 133.092 115.6 128.903C115.6 117.842 136.884 101.252 136.549 101.252C144.756 94.3772 156.321 89.182 160.845 87.8424ZM158.834 92.0312C149.786 95.5513 121.799 116.164 121.128 129.066C121.128 129.737 121.464 130.24 122.135 130.24C126.995 130.24 135.71 121.861 139.06 118.51C147.27 110.634 153.807 100.411 158.834 92.0312Z" fill="#152350"/>
<path d="M184.856 97.1992C195.582 93.0104 229.432 57.1472 234.459 56.9795C236.638 56.9795 240.994 61.0005 240.994 63.5143C240.827 65.3571 238.481 67.0344 238.481 67.0344C224.57 83.2909 219.545 94.8532 219.375 99.042C219.375 102.227 220.046 102.562 220.214 103.734C220.214 104.069 220.046 104.573 219.878 104.573C214.851 103.734 212.337 100.384 212.337 94.1823C212.505 86.1379 220.381 73.7369 225.912 67.7031C198.263 95.0187 192.732 103.734 186.699 103.734C182.677 103.734 177.315 98.8743 177.315 93.6791C177.315 78.2612 196.418 56.4763 202.787 50.4424C206.14 47.5932 204.295 46.4213 206.14 46.2536C208.486 46.2536 212.842 49.2705 214.52 51.4488C215.358 52.6229 215.859 53.1239 215.859 53.7948C215.859 54.4657 215.356 54.8012 214.352 55.6376C203.456 65.1893 187.202 82.1168 184.856 97.1992Z" fill="#152350"/>
<path d="M278.032 46.4213C281.552 46.4213 283.898 50.4424 285.573 53.4593L286.076 54.298C287.416 55.3044 288.758 57.1472 288.758 59.4932C288.254 67.3699 275.182 78.7644 266.973 78.7644C266.805 78.7644 266.302 78.0935 266.302 77.758C268.983 76.2507 272 73.5692 274.681 70.72C278.034 67.3676 283.061 62.3401 283.73 58.1513C283.73 57.1449 282.891 56.8117 281.552 56.8117C276.189 56.8117 270.49 58.6545 265.463 61.8392C256.247 67.8731 250.045 74.7433 250.045 87.1443C250.045 92.004 251.888 96.1928 251.888 101.556C251.888 103.734 251.049 106.248 248.368 106.248C239.652 106.248 227.922 95.8573 227.922 86.1379C227.922 84.6305 228.593 83.9596 229.097 83.9596C230.436 83.9596 230.268 85.4669 231.61 88.6516C233.789 93.6791 238.313 97.8679 244.347 98.7065C245.185 98.7065 245.854 98.0356 245.854 96.696C244.179 92.004 242.669 86.6411 242.669 80.2717C242.669 66.3612 250.043 57.9836 262.276 50.9456C269.652 46.7568 275.518 46.4213 278.032 46.4213Z" fill="#152350"/>
<path d="M313.032 55.5213C316.368 57.03 325.882 57.4362 328.551 57.4362C330.552 57.4362 331.387 58.4435 331.387 59.2807C331.387 60.288 329.72 60.4559 328.551 60.4559C326.884 60.4559 317.201 60.5534 310.863 57.8695C300.856 68.6053 290.18 80.3462 282.674 93.4302C288.346 88.7338 300.355 81.6893 300.355 81.6893C300.522 81.5214 301.19 81.3535 301.855 81.3535C302.189 81.3535 302.523 81.3535 302.523 81.6893C302.523 82.3609 301.023 83.5338 299.52 84.5411C292.682 89.5733 285.176 95.277 281.172 102.993C280.504 104.67 279.338 105.173 277.668 105.173C273.666 103.497 272.497 101.316 272.497 98.1288C272.497 89.0719 290.345 65.7557 301.02 53.6791C292.847 50.1557 281.172 43.7827 266.16 33.8863C250.48 23.8221 227.128 10.0665 204.279 10.0665C192.938 10.0665 177.592 14.9308 173.254 26.3381C171.921 25.3308 171.587 24.1579 171.587 22.6469C171.587 18.7899 174.423 14.2592 176.591 11.911C183.431 4.19269 196.108 0 207.115 0C232.134 0 259.322 22.6446 278.505 36.4001C288.68 43.7804 297.519 48.4768 303.358 51.1607L314.367 37.2373C315.202 36.23 315.369 35.2249 315.369 33.8818C315.369 33.0424 315.035 31.7015 315.035 31.3657C315.035 30.8621 315.536 30.8621 316.368 30.8621C320.203 31.8694 326.209 34.719 326.209 39.5855C326.209 45.2892 322.541 45.6249 313.032 55.5213Z" fill="#152350"/>
<path d="M328.989 53.4593C329.324 52.9561 329.66 52.2852 329.66 51.952C329.66 51.7843 329.492 51.2811 329.492 50.9456C329.492 50.6101 329.492 50.4424 329.827 50.4424C331.001 50.4424 332.005 50.9456 333.18 51.4488C335.526 52.7884 338.543 55.3021 338.543 58.4868C338.543 58.99 338.207 59.8264 337.704 60.4973C336.53 62.3401 333.851 64.6861 331.001 68.0385C321.785 78.2612 315.08 86.4733 310.221 95.0187C308.713 97.8679 307.875 100.046 307.875 102.224C307.875 102.895 308.881 102.392 309.214 103.399C308.879 103.902 308.543 103.902 308.04 103.902C301.838 103.063 301.337 100.382 301.17 97.3669C301.17 85.2992 328.152 55.1344 328.989 53.4593ZM338.543 46.9223C337.872 46.9223 337.704 46.7545 337.704 46.2513C337.872 44.4085 348.094 24.6341 351.948 24.6341C353.958 25.3051 358.149 28.322 358.149 30.5003C357.981 34.1881 343.905 43.5721 339.882 46.0859C339.714 46.2536 339.043 46.9223 338.543 46.9223Z" fill="#152350"/>
<path d="M354.294 50.9456C356.807 50.9456 361.835 54.298 361.835 57.3149C361.332 61.8392 345.245 77.928 341.054 83.6264C345.578 79.6053 370.212 57.6504 377.085 55.4721C377.924 55.3044 378.76 55.1367 379.431 55.1367C381.945 55.1367 386.134 58.6568 386.134 61.506C386.134 62.1769 386.134 62.6779 382.949 66.0303C376.579 73.5715 365.688 86.9788 365.52 95.3564C365.52 97.8701 365.688 102.059 369.374 102.059C369.542 102.059 369.709 102.227 369.709 102.394C369.709 103.736 367.866 104.237 366.357 104.237C361.162 104.237 356.973 98.8743 356.973 92.8427C356.973 82.9555 362.671 74.9111 372.223 62.0069C369.709 63.682 366.189 66.3635 362.168 69.7159C352.784 77.4248 341.052 87.9829 335.521 94.1823C330.829 99.5452 329.154 102.059 329.154 103.399C329.154 103.902 329.322 104.237 329.49 104.573C329.322 104.908 328.819 104.908 328.315 104.908C325.969 104.908 321.781 102.898 321.781 98.3733C321.781 95.5241 323.791 92.8427 323.791 92.8427C328.819 85.4692 334.517 76.5861 350.438 55.3044C345.411 58.1536 336.972 60.4021 336.301 60.4021C335.462 60.4021 334.596 59.6337 334.596 59.2983C334.596 57.4555 350.438 52.1197 351.78 51.4511C352.616 51.1133 353.455 50.9456 354.294 50.9456Z" fill="#152350"/>
</g>
</g>
<defs>
<filter id="filter0_i" x="0" y="0" width="386.134" height="137.109" filterUnits="userSpaceOnUse" color-interpolation-filters="sRGB">
<feFlood flood-opacity="0" result="BackgroundImageFix"/>
<feBlend mode="normal" in="SourceGraphic" in2="BackgroundImageFix" result="shape"/>
<feColorMatrix in="SourceAlpha" type="matrix" values="0 0 0 0 0 0 0 0 0 0 0 0 0 0 0 0 0 0 127 0" result="hardAlpha"/>
<feOffset dy="2"/>
<feGaussianBlur stdDeviation="0.5"/>
<feComposite in2="hardAlpha" operator="arithmetic" k2="-1" k3="1"/>
<feColorMatrix type="matrix" values="0 0 0 0 0.12549 0 0 0 0 0.207843 0 0 0 0 0.309804 0 0 0 1 0"/>
<feBlend mode="multiply" in2="shape" result="effect1_innerShadow"/>
</filter>
<clipPath id="clip0">
<rect width="386.24" height="136" fill="white"/>
</clipPath>
</defs>
</svg>
